<svg width="122" height="120" viewBox="0 0 122 120" fill="none" xmlns="http://www.w3.org/2000/svg">
<path d="M61 100.78C59.6572 100.78 58.4298 100.028 57.8295 98.8365C47.8384 79.0197 12.8885 85.643 12.5371 85.7124C10.6172 86.0897 8.75143 84.8541 8.36929 82.951C7.98715 81.0479 9.2307 79.1978 11.1494 78.8172C11.5557 78.7365 21.2277 76.8545 32.4756 77.8248C45.3421 78.9344 55.0754 83.3715 61 90.757C66.9247 83.3715 76.658 78.9346 89.5244 77.8248C100.772 76.8538 110.444 78.7368 110.851 78.8172C112.771 79.198 114.016 81.05 113.632 82.9538C113.247 84.8579 111.38 86.0916 109.461 85.7119C109.111 85.643 74.1617 79.0194 64.1706 98.8365C63.5703 100.028 62.3426 100.78 61 100.78Z" fill="#E2DFF4"/>
<path d="M64.1705 98.8365C74.1614 79.0195 109.111 85.643 109.461 85.7119C111.38 86.0916 113.247 84.8579 113.632 82.9539C114.015 81.0501 112.771 79.198 110.851 78.8172C110.444 78.7366 100.772 76.8539 89.5244 77.8249C76.6579 78.9344 66.9247 83.3715 61 90.757V100.78C62.3426 100.78 63.5703 100.028 64.1705 98.8365Z" fill="#BEBCDD"/>
<path d="M115.485 100.161C115.241 99.1932 114.594 98.3753 113.705 97.9065C112.361 97.2011 81.5202 81.2779 61.0001 93.097C40.48 81.28 9.63963 97.2008 8.29494 97.9065C7.40636 98.3753 6.75883 99.1932 6.51542 100.161L3.32739 112.801L7.09299 115.451L46.4335 105.318C46.4335 105.318 61.5583 127.977 74.9936 105.318L118.673 116.48L118.828 112.841L115.485 100.161Z" fill="#F9F9F9"/>
<path d="M118.673 112.802L115.485 100.161C115.241 99.1933 114.594 98.374 113.705 97.9071C112.36 97.2007 81.5208 81.2789 61 93.0966V118.123C68.0451 118.123 74.3245 113.807 77.5089 107.805L117.081 118.484L118.829 112.842L118.673 112.802Z" fill="#E2DFF4"/>
<path d="M117.957 119.765C117.667 119.765 117.374 119.73 117.081 119.656L77.5092 109.68C74.3243 115.682 68.0449 119.529 61 119.529C53.9552 119.529 47.6756 115.682 44.4908 109.68L4.91895 119.656C3.02032 120.134 1.09214 118.996 0.61004 117.114C0.127938 115.233 1.27482 113.32 3.17251 112.841L45.6992 102.121C47.5231 101.661 49.3887 102.693 49.9535 104.472C51.4787 109.273 55.9179 112.499 61 112.499C66.0822 112.499 70.5213 109.273 72.0466 104.472C72.6114 102.693 74.4774 101.662 76.3009 102.121L118.828 112.841C120.725 113.32 121.872 115.233 121.39 117.114C120.982 118.705 119.54 119.765 117.957 119.765Z" fill="#BC8173"/>
<path d="M77.5092 109.68L117.081 119.656C117.374 119.729 117.667 119.765 117.957 119.765C119.539 119.765 120.982 118.705 121.39 117.114C121.872 115.233 120.725 113.32 118.827 112.841L76.3006 102.121C74.4771 101.662 72.6111 102.693 72.0463 104.472C70.5211 109.273 66.0819 112.499 60.9998 112.499V119.53C68.0448 119.53 74.3245 115.682 77.5092 109.68Z" fill="#865240"/>
<path d="M114.882 8.43741H111.81V5.39058C111.81 3.44904 110.223 1.875 108.265 1.875C106.307 1.875 104.72 3.44904 104.72 5.39058V8.43741H101.648C99.6902 8.43741 98.103 10.0115 98.103 11.953C98.103 13.8945 99.6902 15.4686 101.648 15.4686H104.72V18.5154C104.72 20.4569 106.307 22.031 108.265 22.031C110.223 22.031 111.81 20.4569 111.81 18.5154V15.4686H114.882C116.84 15.4686 118.427 13.8945 118.427 11.953C118.427 10.0115 116.84 8.43741 114.882 8.43741Z" fill="#31BEBE"/>
<path d="M79.9074 68.9062C78.519 68.9062 77.2012 68.092 76.6338 66.742C75.8806 64.9497 76.7354 62.8913 78.5424 62.1448L101.23 52.7699C103.036 52.0225 105.112 52.8707 105.865 54.6627C106.618 56.4549 105.763 58.5134 103.956 59.2599L81.2693 68.6348C80.8236 68.819 80.3616 68.9062 79.9074 68.9062Z" fill="#FABE2C"/>
<path d="M68.5654 65.1563C68.2936 65.1563 68.0176 65.1249 67.7413 65.0598C65.8368 64.61 64.6606 62.7144 65.1141 60.8256L74.5671 21.4511C75.0206 19.5623 76.9308 18.3961 78.8365 18.8456C80.7411 19.2954 81.9173 21.191 81.4637 23.0798L72.0107 62.4542C71.6232 64.0691 70.1693 65.1563 68.5654 65.1563Z" fill="#FABE2C"/>
<path d="M53.433 65.1558C51.6972 65.1558 50.1807 63.8907 49.9281 62.1369L46.1469 35.8872C45.8702 33.9651 47.2167 32.1844 49.1551 31.9097C51.0906 31.6345 52.8888 32.9707 53.1657 34.893L56.9469 61.1427C57.2237 63.0647 55.8771 64.8455 53.9388 65.1202C53.7688 65.1441 53.5999 65.1558 53.433 65.1558Z" fill="#FED843"/>
<path d="M38.3128 68.9053C37.4055 68.9053 36.4983 68.5619 35.8063 67.8755L13.1191 45.3758C11.7347 44.0031 11.7347 41.777 13.1191 40.404C14.5033 39.0313 16.7479 39.0313 18.1323 40.404L40.8195 62.9037C42.2038 64.2765 42.2038 66.5025 40.8195 67.8755C40.127 68.5619 39.22 68.9053 38.3128 68.9053Z" fill="#FED843"/>
<path d="M6.17261 67.0308C8.13041 67.0308 9.71753 65.4568 9.71753 63.5151C9.71753 61.5735 8.13041 59.9995 6.17261 59.9995C4.2148 59.9995 2.62769 61.5735 2.62769 63.5151C2.62769 65.4568 4.2148 67.0308 6.17261 67.0308Z" fill="#5ED8D3"/>
<path d="M61 18.2808C62.9578 18.2808 64.5449 16.7068 64.5449 14.7651C64.5449 12.8235 62.9578 11.2495 61 11.2495C59.0422 11.2495 57.4551 12.8235 57.4551 14.7651C57.4551 16.7068 59.0422 18.2808 61 18.2808Z" fill="#FED843"/>
<path d="M93.1401 38.9053C95.0979 38.9053 96.6851 37.3313 96.6851 35.3896C96.6851 33.448 95.0979 31.874 93.1401 31.874C91.1823 31.874 89.5952 33.448 89.5952 35.3896C89.5952 37.3313 91.1823 38.9053 93.1401 38.9053Z" fill="#AD77E3"/>
<path d="M64.5449 14.7651C64.5449 12.8233 62.9577 11.2495 61 11.2495V18.2808C62.9577 18.2808 64.5449 16.7067 64.5449 14.7651Z" fill="#FABE2C"/>
<path d="M11.8446 22.0309C5.71998 22.0309 0.737305 17.0895 0.737305 11.0155C0.737305 4.94149 5.71998 0 11.8446 0C17.9692 0 22.9518 4.94149 22.9518 11.0155C22.9518 17.0895 17.9692 22.0309 11.8446 22.0309Z" fill="#FF6666"/>
</svg>
