<svg width="120" height="126" viewBox="0 0 120 126" fill="none" xmlns="http://www.w3.org/2000/svg">
<path d="M103.928 52.0702C104.815 50.76 105.332 49.1799 105.332 47.4789C105.332 43.5205 102.529 40.2171 98.7999 39.4444C98.492 17.6078 80.6977 0 58.7877 0C36.878 0 19.0835 17.6078 18.7756 39.4446C15.046 40.2171 12.243 43.5205 12.243 47.4791C12.243 49.1801 12.7606 50.76 13.647 52.0705C10.5029 55.0293 8.53687 59.2257 8.53687 63.8837C8.53687 71.7654 14.1581 78.3319 21.6099 79.7989C20.8903 81.2823 20.4864 82.9474 20.4864 84.7067C20.4864 90.9267 25.5287 95.9692 31.7487 95.9692H85.8268C92.0468 95.9692 97.089 90.9267 97.089 84.7067C97.089 82.9471 96.6849 81.2823 95.9656 79.7989C103.417 78.3319 109.039 71.7656 109.039 63.8837C109.039 59.2257 107.073 55.0293 103.928 52.0702Z" fill="#596C76"/>
<path d="M62.2249 95.9694H31.7489C28.6383 95.9694 25.8215 94.7094 23.7834 92.671C21.7452 90.6326 20.485 87.8186 20.485 84.7079C20.485 82.9486 20.8905 81.2828 21.6106 79.7998C17.8838 79.0672 14.6159 77.0566 12.2785 74.2477C9.94083 71.4361 8.53638 67.8259 8.53638 63.8837C8.53638 59.2266 10.5012 55.0283 13.6473 52.0695C13.2035 51.4154 12.8511 50.6928 12.6129 49.9221C12.372 49.1489 12.2428 48.3299 12.2428 47.4781C12.2428 43.5207 15.0443 40.2174 18.7761 39.4441C18.9309 28.525 23.4536 18.6655 30.6814 11.5339C37.9067 4.40236 47.8321 0.0012207 58.7867 0.0012207C62.3512 0.0012207 65.8068 0.467814 69.0949 1.33972C62.2751 3.15491 56.1703 6.72204 51.2952 11.5339C44.0699 18.6655 39.5444 28.525 39.3899 39.4441C39.3899 39.4441 40.5719 47.7631 39.5331 48.6655L62.2249 95.9694Z" fill="#465A61"/>
<path d="M83.1214 112.332V124.313C83.1214 125.246 82.3683 125.999 81.4354 125.999H36.1386C35.2109 125.999 34.4526 125.246 34.4526 124.313V112.332C34.4526 107.086 36.3389 102.285 39.4673 98.5629C41.1075 96.6133 43.09 94.9603 45.3211 93.6951C48.4317 91.9282 52.0319 90.9192 55.865 90.9192H61.7088C65.5471 90.9192 69.1445 91.9282 72.2578 93.6927C74.4862 94.9578 76.4687 96.6106 78.1065 98.5629C81.2375 102.285 83.1214 107.086 83.1214 112.332Z" fill="#97DA7B"/>
<path d="M58.7876 116.886C57.7375 116.886 56.8862 116.034 56.8862 114.984V100.249C56.8862 99.1986 57.7375 98.3474 58.7876 98.3474C59.8376 98.3474 60.6889 99.1986 60.6889 100.249V114.984C60.6889 116.034 59.8376 116.886 58.7876 116.886Z" fill="#80D261"/>
<path d="M65.4462 91.2453C55.4023 93.0115 47.7697 101.782 47.7697 112.332V125.999H36.1408C35.2094 125.999 34.4543 125.244 34.4543 124.312V112.332C34.4543 100.507 44.0407 90.9202 55.866 90.9202H61.711C62.9845 90.9202 64.2339 91.0321 65.4462 91.2453Z" fill="#80D261"/>
<path d="M72.2575 93.6936C72.2122 101.092 66.1967 107.078 58.7875 107.078C55.2655 107.078 52.0633 105.725 49.6629 103.513C47.012 101.073 45.3444 97.5804 45.3203 93.696C47.5076 92.4518 49.9373 91.586 52.5188 91.1812V80.8391H65.1629V91.1972C67.707 91.6074 70.0995 92.468 72.2575 93.6936Z" fill="#FFDFCF"/>
<path d="M84.6418 43.7656C86.6566 42.7202 89.0573 42.4195 91.4062 43.097C96.2653 44.501 99.0669 49.5818 97.6632 54.4439C96.2562 59.303 90.3335 65.0249 85.4717 63.618C85.107 63.5117 84.7575 63.3687 84.4233 63.1896H33.1526C32.8184 63.369 32.469 63.5117 32.1043 63.618C27.2422 65.0249 21.3197 59.303 19.9157 54.4439C18.5088 49.5818 21.3106 44.501 26.1695 43.097C28.5184 42.4193 30.9191 42.7202 32.9338 43.7656H84.6418Z" fill="#FFCEBF"/>
<path d="M84.6401 40.0192V59.8005C84.6401 71.8797 76.3573 82.022 65.1625 84.8619C63.1217 85.3787 60.9878 85.6531 58.7872 85.6531C44.5101 85.6531 35.4696 74.0801 35.4696 59.8005L32.9343 40.9758C32.9343 39.5504 34.2851 38.5141 35.6598 38.8896C37.9244 39.5078 41.4489 40.2218 45.6822 40.235C52.7503 40.2537 61.7923 38.3143 70.2082 30.6869C70.9622 30.0022 72.1422 30.1728 72.6777 31.0385C74.1058 33.3456 77.244 37.1421 82.7321 37.8748C83.8196 38.0209 84.6401 38.9241 84.6401 40.0192Z" fill="#FFDFCF"/>
<path d="M65.1628 84.8621C63.1219 85.3789 60.988 85.6532 58.7875 85.6532C44.5103 85.6532 32.9346 74.0802 32.9346 59.8006V40.9759C32.9346 39.5505 34.2854 38.5142 35.6601 38.8898C37.9246 39.508 41.4492 40.2219 45.6825 40.2352V59.8006C45.6825 71.8796 53.9653 82.0246 65.1628 84.8621Z" fill="#FFCEBF"/>
<path d="M48.8376 53.0463C47.7875 53.0463 46.9363 52.1951 46.9363 51.145V47.7915C46.9363 46.7414 47.7875 45.8901 48.8376 45.8901C49.8877 45.8901 50.7389 46.7414 50.7389 47.7915V51.145C50.7389 52.1948 49.8877 53.0463 48.8376 53.0463Z" fill="#465A61"/>
<path d="M68.7385 53.0463C67.6884 53.0463 66.8372 52.1951 66.8372 51.145V47.7915C66.8372 46.7414 67.6884 45.8901 68.7385 45.8901C69.7886 45.8901 70.6398 46.7414 70.6398 47.7915V51.145C70.6398 52.1948 69.7886 53.0463 68.7385 53.0463Z" fill="#465A61"/>
<path d="M30.3999 58.6422C29.3498 58.6422 28.4986 57.791 28.4986 56.7409C28.4986 54.7433 27.1534 52.9877 25.2273 52.4717C24.2129 52.1997 23.6112 51.157 23.8829 50.1429C24.1548 49.1285 25.1977 48.528 26.2116 48.7985C29.7972 49.7592 32.3015 53.0254 32.3015 56.7411C32.3015 57.7907 31.4502 58.6422 30.3999 58.6422Z" fill="#FFB09E"/>
<path d="M87.1762 58.6423C86.1261 58.6423 85.2749 57.791 85.2749 56.741C85.2749 53.0252 87.7792 49.7593 91.3647 48.7983C92.3796 48.5268 93.4218 49.1285 93.6935 50.1427C93.9652 51.1571 93.3633 52.1998 92.3491 52.4715C90.4232 52.9875 89.0778 54.7432 89.0778 56.7407C89.0775 57.7908 88.2263 58.6423 87.1762 58.6423Z" fill="#FFB09E"/>
<path d="M58.7879 69.5826C55.872 69.5826 52.956 68.4728 50.7362 66.2528C49.9935 65.5103 49.9935 64.3064 50.7362 63.5637C51.4787 62.8212 52.6826 62.8212 53.4253 63.5637C56.3824 66.5205 61.1935 66.5205 64.1508 63.5637C64.8933 62.8212 66.0972 62.8212 66.8399 63.5637C67.5826 64.3061 67.5826 65.51 66.8399 66.2528C64.6199 68.4725 61.7039 69.5826 58.7879 69.5826Z" fill="#FE646F"/>
<path d="M57.3622 81.9924V94.4738C54.0187 96.6931 51.3331 99.8234 49.6629 103.513C47.012 101.073 45.3444 97.5803 45.3203 93.6959C47.5076 92.4517 49.9373 91.5859 52.5188 91.1811V81.9924H57.3622Z" fill="#FFCEBF"/>
<path d="M114.187 92.1934L98.0253 95.9699L81.8633 92.1934C79.0778 91.5425 76.4124 93.6567 76.4124 96.5175V121.558C76.4124 124.011 78.4005 125.999 80.8529 125.999H115.198C117.65 125.999 119.638 124.011 119.638 121.558V96.5175C119.638 93.6569 116.973 91.5427 114.187 92.1934Z" fill="#FD8087"/>
<path d="M87.4381 126H80.8541C78.4 126 76.4124 124.012 76.4124 121.558V96.5179C76.4124 93.6583 79.0768 91.5438 81.8631 92.1953L84.8723 92.8976C83.7491 93.691 82.9988 94.9993 82.9988 96.5179V121.558C82.999 124.012 84.9865 126 87.4381 126Z" fill="#FE646F"/>
<path d="M104.471 106.155C103.607 106.155 102.826 105.563 102.621 104.686C102.382 103.664 103.017 102.641 104.04 102.402L113.755 100.132C114.777 99.8926 115.8 100.528 116.039 101.551C116.278 102.573 115.643 103.596 114.62 103.835L104.905 106.105C104.759 106.139 104.614 106.155 104.471 106.155Z" fill="#596C76"/>
<path d="M98.1256 113.376H94.2474C90.7423 113.376 87.9009 116.218 87.9009 119.723V125.998H104.472V119.723C104.472 116.218 101.63 113.376 98.1256 113.376Z" fill="#FFDFCF"/>
<path d="M99.1765 113.467C96.1826 113.974 93.9008 116.583 93.9008 119.722V125.999H87.8821V119.722C87.8821 116.218 90.724 113.376 94.2276 113.376H98.1065C98.4717 113.376 98.8293 113.406 99.1765 113.467Z" fill="#FFCEBF"/>
<path d="M26.9391 113.204C26.3153 113.204 25.704 112.897 25.3403 112.334L0.804463 74.355C0.234756 73.473 0.487741 72.2959 1.36974 71.726C2.25199 71.1565 3.42881 71.4093 3.99876 72.2913L28.5346 110.27C29.1043 111.152 28.8513 112.329 27.9693 112.899C27.6501 113.105 27.2928 113.204 26.9391 113.204Z" fill="#2ED1E2"/>
<path d="M31.8392 110.77H29.5011C25.9414 110.77 23.0557 113.655 23.0557 117.215V119.553C23.0557 123.113 25.9414 125.999 29.5011 125.999H31.8392C35.399 125.999 38.2847 123.113 38.2847 119.553V117.215C38.2847 113.655 35.3987 110.77 31.8392 110.77Z" fill="#FFDFCF"/>
<path d="M33.4627 125.793C32.9454 125.927 32.4006 125.998 31.8402 125.998H29.5028C25.9433 125.998 23.0557 123.113 23.0557 119.553V117.213C23.0557 113.654 25.9433 110.769 29.5028 110.769H31.8402C32.4006 110.769 32.9457 110.84 33.4627 110.974C30.6892 111.694 28.6408 114.214 28.6408 117.213V119.553C28.6405 122.553 30.689 125.073 33.4627 125.793Z" fill="#FFCEBF"/>
</svg>
