<?xml version="1.0" encoding="UTF-8"?>
<svg version="1.1" xmlns="http://www.w3.org/2000/svg" width="512" height="512">
<path d="M0 0 C1.41952217 -0.01058945 1.41952217 -0.01058945 2.86772156 -0.02139282 C42.38370862 -0.24928599 42.38370862 -0.24928599 58.8671875 3.203125 C59.84204102 3.40180176 60.81689453 3.60047852 61.82128906 3.80517578 C113.83059054 14.68458936 159.7301132 39.22202628 196.8671875 77.203125 C197.7128125 76.708125 198.5584375 76.213125 199.4296875 75.703125 C203.31013201 74.00984012 205.67619014 73.74592529 209.8671875 74.203125 C213.4058869 75.85451805 214.67788903 76.91917729 216.8671875 80.203125 C217.02734375 82.24926758 217.02734375 82.24926758 216.9296875 84.59765625 C216.72036712 98.1593469 219.0087816 105.09613073 227.8671875 115.203125 C229.14358783 116.93396358 230.39661535 118.68247438 231.6171875 120.453125 C232.16890625 121.25105469 232.720625 122.04898438 233.2890625 122.87109375 C233.80984375 123.64066406 234.330625 124.41023438 234.8671875 125.203125 C235.36734375 125.94175781 235.8675 126.68039063 236.3828125 127.44140625 C240.89222243 134.50219284 243.87189447 142.09099781 246.92871094 149.85400391 C247.87237364 152.21610655 248.85283987 154.55970822 249.84375 156.90234375 C256.58255372 172.98483952 261.6873048 189.5502416 265.1796875 206.640625 C265.40060059 207.71860352 265.40060059 207.71860352 265.62597656 208.81835938 C268.6005883 224.46467778 269.24019154 239.93869693 269.1796875 255.828125 C269.17753235 256.84603119 269.1753772 257.86393738 269.17315674 258.91268921 C269.12348604 273.52176023 268.87258941 287.85388353 265.8671875 302.203125 C265.56917236 303.66540527 265.56917236 303.66540527 265.26513672 305.15722656 C260.34125246 328.69597513 253.38930044 353.24379132 241.1484375 374.13671875 C238.28200523 380.99693012 238.48171797 389.95228328 239.8671875 397.203125 C241.64792683 399.9649198 243.14456816 401.17621185 245.890625 402.91796875 C249.64905725 405.36169249 250.37705213 409.13838151 251.36328125 413.29296875 C252.55349213 420.27472125 251.3316796 426.72144866 247.2109375 432.54296875 C244.60306113 435.59838323 242.22188184 437.96666211 238.8671875 440.203125 C237.8771875 440.203125 236.8871875 440.203125 235.8671875 440.203125 C235.88813477 440.93426514 235.90908203 441.66540527 235.93066406 442.41870117 C236.01399064 445.74253501 236.06590082 449.06614884 236.1171875 452.390625 C236.15070313 453.54111328 236.18421875 454.69160156 236.21875 455.87695312 C236.23164063 456.98876953 236.24453125 458.10058594 236.2578125 459.24609375 C236.27875977 460.26727295 236.29970703 461.28845215 236.32128906 462.34057617 C235.74844499 465.9516497 234.38536415 467.60534072 231.8671875 470.203125 C229.8671875 470.83203125 229.8671875 470.83203125 227.8671875 470.765625 C227.2071875 470.76691406 226.5471875 470.76820313 225.8671875 470.76953125 C222.95973664 469.94613208 221.76634304 468.52741351 219.8671875 466.203125 C219.44824219 463.53344727 219.44824219 463.53344727 219.5390625 460.51953125 C219.54292969 459.42705078 219.54679687 458.33457031 219.55078125 457.20898438 C219.59498362 454.9169613 219.65483433 452.6251856 219.73046875 450.33398438 C219.95925508 444.37203099 219.95925508 444.37203099 217.16015625 439.45581055 C215.06381386 438.15628223 215.06381386 438.15628223 212.84472656 437.14672852 C210.24133482 435.90449283 208.96890374 434.25315645 207.3671875 431.890625 C206.8825 431.19324219 206.3978125 430.49585938 205.8984375 429.77734375 C205.558125 429.25785156 205.2178125 428.73835938 204.8671875 428.203125 C196.6956132 434.74803221 196.6956132 434.74803221 190.3046875 442.890625 C188.8671875 445.203125 188.8671875 445.203125 186.63671875 446.5390625 C183.48740575 448.43131544 180.85723251 450.71929004 178.1171875 453.140625 C166.03956754 463.55647664 152.75106075 472.38877873 138.8671875 480.203125 C138.16432617 480.60241211 137.46146484 481.00169922 136.73730469 481.41308594 C113.59728816 494.44269524 88.42376213 503.19487079 62.4296875 508.515625 C61.71079346 508.66298096 60.99189941 508.81033691 60.2512207 508.9621582 C45.57558252 511.75152625 31.05049912 512.55205119 16.13989258 512.51879883 C13.20030263 512.5156471 10.2617317 512.53917426 7.32226562 512.56445312 C-6.05087442 512.60911237 -18.94697961 511.40364042 -32.1328125 509.203125 C-33.83836304 508.92094116 -33.83836304 508.92094116 -35.57836914 508.63305664 C-55.97211731 504.96979812 -75.78020175 498.36104001 -94.6328125 489.828125 C-95.51380615 489.43093262 -96.3947998 489.03374023 -97.30249023 488.62451172 C-101.76365915 486.52691107 -105.87117331 484.46185454 -109.77075195 481.43212891 C-124.95791594 470.26057669 -141.83736045 471.87960934 -159.81115723 472.2756958 C-166.44163468 472.41424068 -173.0726008 472.47042275 -179.70433998 472.50136948 C-181.99868481 472.52294754 -184.29018796 472.57921221 -186.58378601 472.6399231 C-193.46721581 472.75655375 -199.07175879 472.80388233 -204.75898743 468.53585815 C-208.82272448 464.59366988 -210.06890337 460.47928303 -210.22373962 454.96470642 C-210.20912186 453.68076492 -210.19450409 452.39682343 -210.17944336 451.07397461 C-210.16666596 449.59928152 -210.15422569 448.12458547 -210.14207458 446.64988708 C-210.13020017 445.47979001 -210.13020017 445.47979001 -210.11808586 444.28605461 C-210.0756279 439.2346751 -210.08781436 434.18304581 -210.08797359 429.13152218 C-210.08499598 424.71623632 -210.06477563 420.30237306 -210.00610352 415.88745117 C-209.23922617 388.9912804 -209.23922617 388.9912804 -219.96542358 364.91842651 C-222.63746048 360.99227228 -224.15622815 356.43617843 -225.8203125 352.015625 C-226.36401489 350.59479614 -226.36401489 350.59479614 -226.91870117 349.14526367 C-232.20242845 335.02401843 -236.42158732 320.53776724 -239.4453125 305.765625 C-239.59266846 305.04673096 -239.74002441 304.32783691 -239.8918457 303.5871582 C-242.86570338 287.94086891 -243.50581612 272.46744454 -243.4453125 256.578125 C-243.44315735 255.56021881 -243.4410022 254.54231262 -243.43878174 253.49356079 C-243.38911104 238.88448977 -243.13821441 224.55236647 -240.1328125 210.203125 C-239.93413574 209.22827148 -239.73545898 208.25341797 -239.53076172 207.24902344 C-234.81672698 184.71346563 -228.67371456 158.34262705 -215.62287903 138.96070862 C-210.14085008 130.48944911 -210.31917901 122.44696668 -210.43359375 112.75 C-210.42995233 111.07854295 -210.4232386 109.40709008 -210.41362 107.73565674 C-210.39467134 103.36519628 -210.40848012 98.99553719 -210.43212891 94.62512207 C-210.46670056 87.61828047 -210.46064266 80.61163173 -210.4359951 73.60477448 C-210.43363738 71.17005352 -210.45136415 68.73607981 -210.4712677 66.30145264 C-210.47151595 64.80090328 -210.4711177 63.30035363 -210.4699707 61.79980469 C-210.47696487 60.49839539 -210.48395905 59.19698608 -210.49116516 57.85614014 C-209.8343085 51.16020181 -207.30688811 46.62001881 -202.1328125 42.203125 C-198.54938853 39.87031205 -195.52582158 39.9959875 -191.31079102 40.07470703 C-189.90328584 40.09384362 -188.49577947 40.11289259 -187.08827209 40.13186646 C-186.34385424 40.14552372 -185.59943638 40.15918098 -184.8324604 40.17325211 C-180.84102899 40.23806702 -176.84929422 40.24236122 -172.85742188 40.2578125 C-167.79941157 40.28119249 -162.74332327 40.32101371 -157.6862793 40.42578125 C-138.06977592 40.81223212 -122.49543203 40.98868654 -106.16093445 28.64820862 C-82.34471075 11.67860048 -47.57513647 4.85367638 -19.1328125 1.203125 C-18.13200401 1.07213158 -18.13200401 1.07213158 -17.11097717 0.93849182 C-11.39460774 0.24225009 -5.75538618 0.02856336 0 0 Z " fill="#184375" transform="translate(243.1328125,-0.203125)"/>
<path d="M0 0 C1.0054184 0.00465271 2.01083679 0.00930542 3.04672241 0.01409912 C17.55398411 0.09270742 31.81520628 0.39095071 46.0625 3.375 C47.03735352 3.57367676 48.01220703 3.77235352 49.01660156 3.97705078 C101.02590304 14.85646436 146.9254257 39.39390128 184.0625 77.375 C184.908125 76.88 185.75375 76.385 186.625 75.875 C190.50544451 74.18171512 192.87150264 73.91780029 197.0625 74.375 C200.6011994 76.02639305 201.87320153 77.09105229 204.0625 80.375 C204.22265625 82.42114258 204.22265625 82.42114258 204.125 84.76953125 C203.91567962 98.3312219 206.2040941 105.26800573 215.0625 115.375 C216.33890033 117.10583858 217.59192785 118.85434938 218.8125 120.625 C219.36421875 121.42292969 219.9159375 122.22085938 220.484375 123.04296875 C221.00515625 123.81253906 221.5259375 124.58210938 222.0625 125.375 C222.56265625 126.11363281 223.0628125 126.85226563 223.578125 127.61328125 C228.08753493 134.67406784 231.06720697 142.26287281 234.12402344 150.02587891 C235.06768614 152.38798155 236.04815237 154.73158322 237.0390625 157.07421875 C243.77786622 173.15671452 248.8826173 189.7221166 252.375 206.8125 C252.59591309 207.89047852 252.59591309 207.89047852 252.82128906 208.99023438 C255.7959008 224.63655278 256.43550404 240.11057193 256.375 256 C256.37284485 257.01790619 256.3706897 258.03581238 256.36846924 259.08456421 C256.31879854 273.69363523 256.06790191 288.02575853 253.0625 302.375 C252.76448486 303.83728027 252.76448486 303.83728027 252.46044922 305.32910156 C247.53656496 328.86785013 240.58461294 353.41566632 228.34375 374.30859375 C225.47731773 381.16880512 225.67703047 390.12415828 227.0625 397.375 C228.84323933 400.1367948 230.33988066 401.34808685 233.0859375 403.08984375 C236.84436975 405.53356749 237.57236463 409.31025651 238.55859375 413.46484375 C239.74880463 420.44659625 238.5269921 426.89332366 234.40625 432.71484375 C231.79837363 435.77025823 229.41719434 438.13853711 226.0625 440.375 C225.0725 440.375 224.0825 440.375 223.0625 440.375 C223.08344727 441.10614014 223.10439453 441.83728027 223.12597656 442.59057617 C223.20930314 445.91441001 223.26121332 449.23802384 223.3125 452.5625 C223.34601563 453.71298828 223.37953125 454.86347656 223.4140625 456.04882812 C223.42695313 457.16064453 223.43984375 458.27246094 223.453125 459.41796875 C223.47407227 460.43914795 223.49501953 461.46032715 223.51660156 462.51245117 C222.94375749 466.1235247 221.58067665 467.77721572 219.0625 470.375 C217.0625 471.00390625 217.0625 471.00390625 215.0625 470.9375 C214.4025 470.93878906 213.7425 470.94007813 213.0625 470.94140625 C210.15504914 470.11800708 208.96165554 468.69928851 207.0625 466.375 C206.64355469 463.70532227 206.64355469 463.70532227 206.734375 460.69140625 C206.73824219 459.59892578 206.74210937 458.50644531 206.74609375 457.38085938 C206.79029612 455.0888363 206.85014683 452.7970606 206.92578125 450.50585938 C207.15456758 444.54390599 207.15456758 444.54390599 204.35546875 439.62768555 C202.25912636 438.32815723 202.25912636 438.32815723 200.04003906 437.31860352 C197.43664732 436.07636783 196.16421624 434.42503145 194.5625 432.0625 C194.0778125 431.36511719 193.593125 430.66773438 193.09375 429.94921875 C192.7534375 429.42972656 192.413125 428.91023438 192.0625 428.375 C183.8909257 434.91990721 183.8909257 434.91990721 177.5 443.0625 C176.0625 445.375 176.0625 445.375 173.83203125 446.7109375 C170.68271825 448.60319044 168.05254501 450.89116504 165.3125 453.3125 C153.23488004 463.72835164 139.94637325 472.56065373 126.0625 480.375 C125.35963867 480.77428711 124.65677734 481.17357422 123.93261719 481.58496094 C100.79260066 494.61457024 75.61907463 503.36674579 49.625 508.6875 C48.90610596 508.83485596 48.18721191 508.98221191 47.4465332 509.1340332 C32.77089502 511.92340125 18.24581162 512.72392619 3.33520508 512.69067383 C0.39561513 512.6875221 -2.5429558 512.71104926 -5.48242188 512.73632812 C-18.85556192 512.78098737 -31.75166711 511.57551542 -44.9375 509.375 C-46.07453369 509.18687744 -47.21156738 508.99875488 -48.38305664 508.80493164 C-80.08359388 503.11067366 -110.82473042 490.70415226 -137.9375 473.375 C-137.9375 473.045 -137.9375 472.715 -137.9375 472.375 C-136.68736366 472.37445523 -135.43722733 472.37391047 -134.14920807 472.37334919 C-104.46390711 472.35930069 -74.77876194 472.31952962 -45.09354869 472.24814438 C-41.43866831 472.23937778 -37.78378745 472.23082794 -34.12890625 472.22241211 C-33.40129473 472.22073305 -32.67368321 472.21905398 -31.92402285 472.21732404 C-20.14740898 472.19066466 -8.37084377 472.18155972 3.40579718 472.17895857 C15.49251647 472.17589757 27.57909518 472.1539339 39.66575098 472.11447543 C46.45351246 472.0928568 53.24105821 472.07993304 60.02885437 472.08884621 C66.41798833 472.0963791 72.80664065 472.08059336 79.19568634 472.04693985 C81.54019501 472.03869758 83.8847515 472.03896714 86.22925568 472.04840279 C89.43249819 472.06001793 92.63416049 472.04091472 95.83728027 472.01423645 C96.76336893 472.02490971 97.68945758 472.03558297 98.64360952 472.04657966 C104.05144757 471.96264859 107.76341203 470.95792571 112.37901163 468.12987059 C116.71801134 463.60689133 117.43763158 458.21754011 117.44002342 452.19256592 C117.44438374 451.50110647 117.44874407 450.80964702 117.45323652 450.09723425 C117.46415966 447.78695169 117.45378492 445.4772701 117.44345093 443.16699219 C117.44690866 441.4912676 117.451674 439.81554529 117.45763266 438.13982773 C117.47015643 433.54005652 117.46396599 428.94047203 117.45467401 424.34070015 C117.44788952 419.37812154 117.45836177 414.41557515 117.46661377 409.45300293 C117.47995969 399.73329227 117.47706953 390.01365107 117.46837585 380.29393768 C117.4616031 372.39513071 117.46068081 364.49634322 117.4639473 356.59753418 C117.46463684 354.91179342 117.46463684 354.91179342 117.46534032 353.19199729 C117.46629949 350.90902614 117.46727213 348.626055 117.4682581 346.34308386 C117.47681451 324.93128379 117.46697391 303.51952224 117.450857 282.10772848 C117.4374536 263.73195594 117.43978162 245.35624026 117.45361328 226.98046875 C117.46966465 205.64573861 117.47599051 184.31104225 117.46677649 162.97630692 C117.46582083 160.70169322 117.46487772 158.42707952 117.4639473 156.15246582 C117.46348447 155.03328695 117.46302164 153.91410808 117.46254479 152.7610147 C117.45995358 144.87090097 117.46432874 136.98080865 117.47138596 129.09069824 C117.47979622 119.4764322 117.47753076 109.86223964 117.46154372 100.24798203 C117.45365466 95.34182948 117.45058028 90.43579949 117.46049118 85.52964783 C117.46942535 81.03911535 117.46452627 76.54881915 117.44855852 72.05830812 C117.44520531 70.4332377 117.44691692 68.80814736 117.45418589 67.18308973 C117.46330879 64.97425404 117.45395201 62.76622761 117.44002342 60.55743408 C117.43953637 59.330555 117.43904931 58.10367592 117.43854749 56.83961868 C116.92686399 52.12535189 115.7154696 48.09805778 112.37901163 44.62012941 C106.829092 41.21960077 102.27535828 40.66156409 95.83728027 40.73576355 C94.33244701 40.72323004 94.33244701 40.72323004 92.79721308 40.71044332 C89.44973755 40.68856983 86.10336503 40.70210387 82.75585938 40.71557617 C80.35076059 40.70712089 77.94566866 40.69647584 75.54058838 40.68380737 C69.69684578 40.65858099 63.85341584 40.6561317 58.0096311 40.66380527 C51.20694391 40.67150303 44.40442916 40.65099461 37.60178453 40.62878648 C25.47149633 40.5899301 13.34128368 40.57323592 1.2109375 40.57055664 C-10.56904982 40.56790711 -22.34894889 40.55477175 -34.12890625 40.52758789 C-34.85563138 40.52591451 -35.58235652 40.52424113 -36.33110362 40.52251705 C-39.97705235 40.51405727 -43.62300056 40.50539191 -47.26894855 40.49662435 C-77.49178752 40.42421201 -107.71457375 40.38817014 -137.9375 40.375 C-115.39955603 22.1714149 -84.00074263 11.66065312 -56.125 5.5 C-55.31699951 5.32114258 -54.50899902 5.14228516 -53.67651367 4.95800781 C-50.77157255 4.36429722 -47.86303406 3.85861757 -44.9375 3.375 C-44.18920929 3.25078674 -43.44091858 3.12657349 -42.66995239 2.99859619 C-28.3933138 0.68680962 -14.44956184 -0.11998824 0 0 Z " fill="#FEC32E" transform="translate(255.9375,-0.375)"/>
<path d="M0 0 C1.53397336 -0.01564648 1.53397336 -0.01564648 3.09893608 -0.03160906 C4.22071314 -0.02268617 5.3424902 -0.01376328 6.4982605 -0.00457001 C7.69125322 -0.01080997 8.88424595 -0.01704993 10.11338997 -0.02347898 C13.42620947 -0.03669016 16.73812416 -0.03191364 20.05088902 -0.01953411 C23.62287602 -0.01049763 27.19478296 -0.02444634 30.76675415 -0.0354538 C37.76472478 -0.05325869 44.76252399 -0.04939033 51.76050138 -0.03780323 C57.44688546 -0.0287769 63.13322142 -0.02754143 68.8196106 -0.0318985 C70.03267354 -0.0328179 70.03267354 -0.0328179 71.27024281 -0.03375587 C72.91301776 -0.03503474 74.5557927 -0.0363316 76.19856763 -0.03764623 C91.61001772 -0.0490578 107.02137271 -0.03592931 122.43280721 -0.01444477 C135.66219214 0.00342675 148.89143669 0.00032281 162.12081909 -0.01811981 C177.47637431 -0.03951637 192.83184613 -0.04795911 208.18741417 -0.03567076 C209.82421238 -0.03439653 211.4610106 -0.03313905 213.09780884 -0.0318985 C214.30587494 -0.03097285 214.30587494 -0.03097285 215.53834641 -0.03002849 C221.21919829 -0.02657194 226.89999736 -0.03241049 232.58084106 -0.04181671 C239.5020735 -0.05302461 246.42312444 -0.05002228 253.34433603 -0.02869374 C256.87702584 -0.01816684 260.40941282 -0.01408898 263.94210052 -0.02729034 C267.76795866 -0.04137124 271.59331876 -0.02458111 275.41915894 -0.00457001 C277.10182452 -0.01795434 277.10182452 -0.01795434 278.81848335 -0.03160906 C279.84113226 -0.02117807 280.86378117 -0.01074708 281.91741943 0 C282.80075895 0.00064941 283.68409847 0.00129882 284.59420586 0.00196791 C287.73551024 0.6680863 288.95010271 2.05756252 290.95870972 4.50336456 C291.46486759 6.44962215 291.46486759 6.44962215 291.47337341 8.51934052 C291.48609787 9.30854385 291.49882233 10.09774719 291.51193237 10.91086578 C291.50540649 11.76759888 291.49888062 12.62433197 291.49215698 13.50702667 C291.50077255 14.41641495 291.50938812 15.32580322 291.51826477 16.26274872 C291.54096858 19.26902474 291.53417746 22.27437188 291.52511597 25.28070831 C291.53034981 27.37051928 291.53662541 29.46032789 291.54389954 31.55013275 C291.55431209 35.93073387 291.54973023 40.31101033 291.53512573 44.69159698 C291.51794212 50.3053514 291.54142394 55.91808193 291.57661533 61.53172207 C291.59857693 65.84775831 291.59715072 70.16354914 291.58885002 74.47962379 C291.58802972 76.54928014 291.59490807 78.61895437 291.60962105 80.68855858 C291.62704255 83.58311482 291.61254397 86.47582592 291.58981323 89.37030792 C291.60150543 90.22501678 291.61319763 91.07972565 291.62524414 91.96033478 C291.61259018 92.75235794 291.59993622 93.5443811 291.5868988 94.36040497 C291.58631249 95.04378905 291.58572618 95.72717314 291.58512211 96.43126583 C290.50054188 100.01893004 289.00924638 101.31843166 285.95870972 103.50336456 C282.10353874 104.24916257 278.29796977 104.17762182 274.38156128 104.13828278 C273.1965868 104.14608273 272.01161232 104.15388268 270.79072952 104.161919 C267.50490755 104.17841431 264.22000879 104.17247571 260.93420982 104.15698791 C257.38946995 104.1456803 253.8448554 104.1631341 250.30014038 104.17688751 C243.3574193 104.19913094 236.41496834 104.19431394 229.47223663 104.17982431 C223.83021323 104.16853636 218.18826558 104.16699923 212.54623413 104.17244339 C211.74350044 104.17320956 210.94076674 104.17397572 210.11370778 104.1747651 C208.48301408 104.17636372 206.85232041 104.17798478 205.22162676 104.17962806 C189.9274364 104.19388879 174.63339585 104.1774878 159.33923006 104.15062623 C146.213617 104.12828712 133.08822503 104.13216716 119.96261597 104.15522003 C104.72349278 104.18197236 89.48450091 104.19251546 74.24535751 104.17715871 C72.62063346 104.17556595 70.99590939 104.1739941 69.3711853 104.17244339 C68.57177182 104.17167201 67.77235835 104.17090063 66.94872022 104.17010588 C61.31289854 104.16578717 55.6771601 104.1730791 50.04135132 104.18484116 C43.17393175 104.19885843 36.30679795 104.19508273 29.43941116 104.16843744 C25.93488587 104.15528851 22.43083717 104.15016443 18.92631531 104.1666832 C15.12901666 104.18029079 11.33307 104.16327747 7.53585815 104.13828278 C6.42545795 104.14943638 5.31505775 104.16058999 4.17100906 104.17208159 C-3.24030299 104.07706804 -3.24030299 104.07706804 -7.22560024 101.22261715 C-8.9813588 98.59312044 -9.66682816 97.45056839 -9.66947937 94.36040497 C-9.68213333 93.56838181 -9.69478729 92.77635864 -9.70782471 91.96033478 C-9.69613251 91.10562592 -9.68444031 90.25091705 -9.6723938 89.37030792 C-9.6795491 88.45916733 -9.68670441 87.54802673 -9.69407654 86.60927582 C-9.71095865 83.60340697 -9.69156515 80.59903042 -9.67019653 77.59320831 C-9.6710252 75.50243252 -9.67348451 73.41165679 -9.67750549 71.3208847 C-9.68036307 66.94197703 -9.66566453 62.56358096 -9.63821411 58.18476105 C-9.60411065 52.5699053 -9.6101571 46.95596315 -9.62887669 41.3410635 C-9.63944048 37.02506128 -9.6305148 32.70927198 -9.61549187 28.39328957 C-9.61030647 26.32282455 -9.61079618 24.25233733 -9.61703682 22.18187523 C-9.62248226 19.28977176 -9.602136 16.39898064 -9.57473755 13.50702667 C-9.58126343 12.65029358 -9.58778931 11.79356049 -9.59451294 10.91086578 C-9.58178848 10.12166245 -9.56906403 9.33245911 -9.55595398 8.51934052 C-9.55314706 7.83633346 -9.55034014 7.1533264 -9.54744816 6.44962215 C-8.27001477 1.53768746 -4.70895339 0.00346191 0 0 Z " fill="#4AC7F0" transform="translate(63.041290283203125,64.49663543701172)"/>
<path d="M0 0 C2.1875 1.6875 2.1875 1.6875 4.1875 4.6875 C4.34765625 6.73364258 4.34765625 6.73364258 4.25 9.08203125 C4.04067962 22.6437219 6.3290941 29.58050573 15.1875 39.6875 C16.46390033 41.41833858 17.71692785 43.16684938 18.9375 44.9375 C19.76507813 46.13439453 19.76507813 46.13439453 20.609375 47.35546875 C21.39054687 48.50982422 21.39054687 48.50982422 22.1875 49.6875 C22.68765625 50.42613281 23.1878125 51.16476563 23.703125 51.92578125 C28.21253493 58.98656784 31.19220697 66.57537281 34.24902344 74.33837891 C35.19268614 76.70048155 36.17315237 79.04408322 37.1640625 81.38671875 C43.90286622 97.46921452 49.0076173 114.0346166 52.5 131.125 C52.72091309 132.20297852 52.72091309 132.20297852 52.94628906 133.30273438 C55.9209008 148.94905278 56.56050404 164.42307193 56.5 180.3125 C56.49676727 181.83935928 56.49676727 181.83935928 56.49346924 183.39706421 C56.44379854 198.00613523 56.19290191 212.33825853 53.1875 226.6875 C52.98882324 227.66235352 52.79014648 228.63720703 52.58544922 229.64160156 C47.66156496 253.18035013 40.70961294 277.72816632 28.46875 298.62109375 C25.60231773 305.48130512 25.80203047 314.43665828 27.1875 321.6875 C28.96823933 324.4492948 30.46488066 325.66058685 33.2109375 327.40234375 C36.96936975 329.84606749 37.69736463 333.62275651 38.68359375 337.77734375 C39.87380463 344.75909625 38.6519921 351.20582366 34.53125 357.02734375 C31.92337363 360.08275823 29.54219434 362.45103711 26.1875 364.6875 C25.1975 364.6875 24.2075 364.6875 23.1875 364.6875 C23.2189209 365.78421021 23.2189209 365.78421021 23.25097656 366.90307617 C23.33430314 370.22691001 23.38621332 373.55052384 23.4375 376.875 C23.47101563 378.02548828 23.50453125 379.17597656 23.5390625 380.36132812 C23.55839844 382.02905273 23.55839844 382.02905273 23.578125 383.73046875 C23.6095459 385.26223755 23.6095459 385.26223755 23.64160156 386.82495117 C23.06875749 390.4360247 21.70567665 392.08971572 19.1875 394.6875 C17.1875 395.31640625 17.1875 395.31640625 15.1875 395.25 C14.5275 395.25128906 13.8675 395.25257813 13.1875 395.25390625 C10.28004914 394.43050708 9.08665554 393.01178851 7.1875 390.6875 C6.76855469 388.01782227 6.76855469 388.01782227 6.859375 385.00390625 C6.86324219 383.91142578 6.86710937 382.81894531 6.87109375 381.69335938 C6.91529612 379.4013363 6.97514683 377.1095606 7.05078125 374.81835938 C7.27956758 368.85640599 7.27956758 368.85640599 4.48046875 363.94018555 C2.38412636 362.64065723 2.38412636 362.64065723 0.16503906 361.63110352 C-2.43835268 360.38886783 -3.71078376 358.73753145 -5.3125 356.375 C-5.7971875 355.67761719 -6.281875 354.98023438 -6.78125 354.26171875 C-7.1215625 353.74222656 -7.461875 353.22273438 -7.8125 352.6875 C-16.08933068 359.24065349 -16.08933068 359.24065349 -22.3125 367.5625 C-23.8125 369.6875 -23.8125 369.6875 -26.75 370.25 C-30.57050311 369.54827494 -31.52791449 368.81435146 -33.8125 365.6875 C-34.16140086 362.65844023 -34.28004756 360.00446713 -34.203125 356.984375 C-34.19746521 356.14658508 -34.19180542 355.30879517 -34.18597412 354.44561768 C-34.16362329 351.77565834 -34.11343098 349.10705213 -34.0625 346.4375 C-34.04243325 344.62501941 -34.02418278 342.81251774 -34.0078125 341 C-33.96716747 336.5615622 -33.88888025 332.12604143 -33.8125 327.6875 C-28.2025 327.6875 -22.5925 327.6875 -16.8125 327.6875 C-16.8125 255.4175 -16.8125 183.1475 -16.8125 108.6875 C-18.7925 108.0275 -20.7725 107.3675 -22.8125 106.6875 C-31.72375038 102.29312052 -38.13948952 94.5746898 -41.8125 85.375 C-44.42168109 75.76222757 -43.60658652 66.32090684 -39.3515625 57.37109375 C-34.62659657 49.13238411 -26.9567756 41.73559187 -17.8125 38.6875 C-17.79791748 37.71401611 -17.78333496 36.74053223 -17.76831055 35.73754883 C-17.71016704 32.11234524 -17.63293623 28.4877524 -17.55004883 24.86303711 C-17.51687468 23.29673199 -17.48881942 21.73030949 -17.46606445 20.16381836 C-17.43237884 17.90688237 -17.38005951 15.65101474 -17.32421875 13.39453125 C-17.31463387 12.35048882 -17.31463387 12.35048882 -17.30485535 11.28535461 C-17.1745302 6.93787868 -16.43055549 4.17351321 -13.8125 0.6875 C-9.64519307 -2.4379802 -4.56769721 -2.13159203 0 0 Z " fill="#FEC432" transform="translate(455.8125,75.3125)"/>
<path d="M0 0 C13.2033677 16.4805137 18.48824178 43.09035674 22.8125 63.375 C23.1050769 64.74495117 23.1050769 64.74495117 23.40356445 66.14257812 C26.64791121 82.29704934 27.37508268 98.18968254 27.3125 114.625 C27.31034485 115.64290619 27.3081897 116.66081238 27.30596924 117.70956421 C27.25629854 132.31863523 27.00540191 146.65075853 24 161 C23.80132324 161.97485352 23.60264648 162.94970703 23.39794922 163.95410156 C18.48471618 187.44193171 11.5866001 212.09902165 -0.71875 232.90625 C-2.5616044 237.35606915 -2.56833251 241.60149101 -2.6875 246.375 C-2.73874023 247.76525391 -2.73874023 247.76525391 -2.79101562 249.18359375 C-2.87299552 251.45560812 -2.94230494 253.72726104 -3 256 C-4.29550781 255.75636719 -4.29550781 255.75636719 -5.6171875 255.5078125 C-8.84643657 255.02305225 -11.86354837 254.86665869 -15.125 254.875 C-16.13820313 254.87242187 -17.15140625 254.86984375 -18.1953125 254.8671875 C-21.23241585 254.91900452 -21.23241585 254.91900452 -25 256 C-25 185.71 -25 115.42 -25 43 C-21.37 41.02 -17.74 39.04 -14 37 C-6.9246351 30.82787317 -0.82346621 22.5817579 0.21923828 12.98144531 C0.42011067 8.64300551 0.26648702 4.33485556 0 0 Z " fill="#FEC32D" transform="translate(485,141)"/>
<path d="M0 0 C0.80448578 -0.00953201 1.60897156 -0.01906403 2.43783569 -0.02888489 C3.30349152 -0.02797348 4.16914734 -0.02706207 5.06103516 -0.02612305 C5.95496979 -0.03040817 6.84890442 -0.0346933 7.76992798 -0.03910828 C9.66122592 -0.04485136 11.55254596 -0.045352 13.44384766 -0.04101562 C16.33225412 -0.03786128 19.21963077 -0.06129524 22.10791016 -0.08666992 C23.94645053 -0.08894353 25.78499366 -0.08964612 27.62353516 -0.08862305 C28.48514252 -0.09783279 29.34674988 -0.10704254 30.23446655 -0.11653137 C34.94073864 -0.08037604 38.23998467 0.09586631 41.97509766 3.2746582 C45.78431802 7.97022262 45.40633696 12.62173368 45.37915039 18.38574219 C45.38601364 19.40095947 45.39287689 20.41617676 45.39994812 21.4621582 C45.41823642 24.8151654 45.41437559 28.16770562 45.40869141 31.52075195 C45.41325222 33.8533595 45.41855749 36.1859657 45.42457581 38.51856995 C45.43351092 43.40680399 45.43107911 48.2948747 45.42114258 53.18310547 C45.40965265 59.44562654 45.4298633 65.70758379 45.45905972 71.97003078 C45.47741055 76.78704914 45.47713143 81.6039321 45.4714222 86.42097664 C45.47126884 88.72983656 45.4773245 91.03870558 45.48971367 93.34753227 C45.50460016 96.57677399 45.49396287 99.80497055 45.47680664 103.03417969 C45.48647461 103.98658035 45.49614258 104.93898102 45.50610352 105.92024231 C45.44197255 111.6883515 44.74409428 114.84414761 40.97509766 119.2746582 C36.67379912 122.89635157 32.49816045 122.7132529 27.13134766 122.6730957 C26.28463501 122.67596588 25.43792236 122.67883606 24.56555176 122.68179321 C22.78034799 122.68382924 20.99512168 122.6783317 19.20996094 122.66577148 C16.48402828 122.64971082 13.75957818 122.66563538 11.03369141 122.68481445 C9.2954069 122.68283194 7.55712331 122.67898809 5.81884766 122.6730957 C5.00726196 122.6791684 4.19567627 122.68524109 3.35949707 122.6914978 C-1.23123098 122.63469743 -4.36518905 122.33920769 -8.02490234 119.2746582 C-11.85793196 114.56957462 -11.45596357 109.85413213 -11.42895508 104.07177734 C-11.43581833 103.04680649 -11.44268158 102.02183563 -11.44975281 100.96580505 C-11.46804222 97.58033362 -11.46418012 94.19532465 -11.45849609 90.80981445 C-11.46305685 88.45478667 -11.46836211 86.09976022 -11.47438049 83.74473572 C-11.48331583 78.80942375 -11.48088354 73.87427357 -11.47094727 68.93896484 C-11.45945728 62.61591165 -11.47966799 56.29341688 -11.5088644 49.97043705 C-11.52721461 45.1070959 -11.52693624 40.24388885 -11.52122688 35.38052177 C-11.52107352 33.04933323 -11.5271298 30.71813568 -11.53951836 28.38698006 C-11.55440364 25.12660869 -11.5437684 21.86727267 -11.52661133 18.60693359 C-11.5362793 17.64518219 -11.54594727 16.68343079 -11.5559082 15.6925354 C-11.49388962 10.06135588 -10.86879358 6.69454147 -7.02490234 2.2746582 C-3.9948548 0.25462651 -3.39893813 0.02216225 0 0 Z " fill="#F85569" transform="translate(303.02490234375,322.725341796875)"/>
<path d="M0 0 C0.33 0 0.66 0 1 0 C1 83.82 1 167.64 1 254 C-3.47637806 249.52362194 -5.52526901 245.45827383 -8.1875 239.8125 C-8.66727295 238.79728271 -9.1470459 237.78206543 -9.64135742 236.73608398 C-21.08239302 212.01246976 -28.53343622 186.00883231 -32 159 C-32.13099342 157.99919151 -32.13099342 157.99919151 -32.26463318 156.97816467 C-32.96087491 151.26179524 -33.17456164 145.62257368 -33.203125 139.8671875 C-33.21018463 138.92083939 -33.21724426 137.97449127 -33.22451782 136.99946594 C-33.45241099 97.48347888 -33.45241099 97.48347888 -30 81 C-29.80132324 80.02514648 -29.60264648 79.05029297 -29.39794922 78.04589844 C-16.52990638 16.52990638 -16.52990638 16.52990638 0 0 Z " fill="#FDC32E" transform="translate(33,129)"/>
<path d="M0 0 C2.1875 1.6875 2.1875 1.6875 4.1875 4.6875 C4.34765625 6.73364258 4.34765625 6.73364258 4.25 9.08203125 C4.04067962 22.6437219 6.3290941 29.58050573 15.1875 39.6875 C16.46390033 41.41833858 17.71692785 43.16684938 18.9375 44.9375 C19.48277344 45.72511719 20.02804687 46.51273438 20.58984375 47.32421875 C27.90254209 58.14129087 31.80590113 67.35654639 30.1875 80.6875 C27.11648301 91.32402664 21.93603026 99.3813544 12.62890625 105.36328125 C6.16726189 108.86807715 1.33079123 110.271407 -6 110.25 C-6.83426514 110.24830811 -7.66853027 110.24661621 -8.52807617 110.24487305 C-16.02854881 110.02817179 -21.60356675 107.94913235 -27.8125 103.6875 C-28.42222656 103.29304688 -29.03195312 102.89859375 -29.66015625 102.4921875 C-36.4851714 97.49997693 -41.28735975 88.91325643 -42.8125 80.6875 C-43.96356374 70.02097597 -42.31633129 61.35179858 -36.2734375 52.41015625 C-31.53044476 46.55447089 -25.01335837 41.08778612 -17.8125 38.6875 C-17.79791748 37.71401611 -17.78333496 36.74053223 -17.76831055 35.73754883 C-17.71016704 32.11234524 -17.63293623 28.4877524 -17.55004883 24.86303711 C-17.51687468 23.29673199 -17.48881942 21.73030949 -17.46606445 20.16381836 C-17.43237884 17.90688237 -17.38005951 15.65101474 -17.32421875 13.39453125 C-17.31463387 12.35048882 -17.31463387 12.35048882 -17.30485535 11.28535461 C-17.1745302 6.93787868 -16.43055549 4.17351321 -13.8125 0.6875 C-9.64519307 -2.4379802 -4.56769721 -2.13159203 0 0 Z " fill="#38434C" transform="translate(455.8125,75.3125)"/>
<path d="M0 0 C5 5 5 5 7.3125 7.5 C11.70334912 11.58451081 16.65620252 14.32810126 22 17 C22 89.27 22 161.54 22 236 C14.74 236 7.48 236 0 236 C0 158.12 0 80.24 0 0 Z " fill="#E1E2E6" transform="translate(417,167)"/>
<path d="M0 0 C0.33 0 0.66 0 1 0 C1 76.23 1 152.46 1 231 C-0.98 230.67 -2.96 230.34 -5 230 C-7.04018392 229.91174777 -9.08291489 229.86977728 -11.125 229.875 C-12.13820313 229.87242187 -13.15140625 229.86984375 -14.1953125 229.8671875 C-17.23241585 229.91900452 -17.23241585 229.91900452 -21 231 C-21 160.71 -21 90.42 -21 18 C-17.37 16.02 -13.74 14.04 -10 12 C-6.10966346 8.60630216 -2.32874421 4.65748842 0 0 Z " fill="#E1E2E5" transform="translate(481,166)"/>
<path d="M0 0 C1.58087964 -0.01649107 3.16168684 -0.04369026 4.7421875 -0.08203125 C20.49034011 -0.46178331 20.49034011 -0.46178331 26.33007812 3.68359375 C30.45855945 8.48772153 31.2209926 13.23886417 31.19580078 19.38134766 C31.20104263 20.1354895 31.20628448 20.88963135 31.21168518 21.66662598 C31.21807852 23.25332412 31.21680335 24.84006983 31.20825195 26.42675781 C31.19973039 28.84347409 31.22855506 31.25783244 31.26025391 33.67431641 C31.26186601 35.22249279 31.26128822 36.77067332 31.25830078 38.31884766 C31.27515175 39.39253601 31.27515175 39.39253601 31.29234314 40.48791504 C31.22232623 45.57002306 29.92127795 48.4178944 26.76220703 52.35009766 C22.25646457 56.30968951 18.06584835 56.52784119 12.27783203 56.58837891 C11.54401306 56.59645065 10.81019409 56.6045224 10.05413818 56.61283875 C8.500797 56.62665964 6.94742569 56.63739071 5.39404297 56.64526367 C3.81322264 56.65676821 2.23244069 56.6771961 0.65185547 56.70678711 C-1.63975249 56.74967689 -3.93020735 56.76566231 -6.22216797 56.77587891 C-7.26942047 56.80214104 -7.26942047 56.80214104 -8.33782959 56.82893372 C-13.54236596 56.80622475 -17.30192462 55.69637333 -21.23779297 52.35009766 C-25.05275263 47.83676619 -25.83755691 43.26801492 -25.76904297 37.43994141 C-25.77286987 36.70941055 -25.77669678 35.9788797 -25.78063965 35.22621155 C-25.78334423 33.6925416 -25.77608547 32.15882437 -25.75927734 30.62524414 C-25.73781172 28.28963763 -25.75914055 25.95709525 -25.78466797 23.62158203 C-25.78202503 22.12352843 -25.77690076 20.62547673 -25.76904297 19.12744141 C-25.77713989 18.43666 -25.78523682 17.7458786 -25.7935791 17.03416443 C-25.69768333 12.0323037 -24.33912461 9.21930026 -21.23779297 5.35009766 C-14.50330577 -0.58266487 -8.54396193 0.06522108 0 0 Z " fill="#EAECED" transform="translate(85.23779296875,188.64990234375)"/>
<path d="M0 0 C0.73053085 -0.00145523 1.46106171 -0.00291046 2.21372986 -0.00440979 C3.74742653 -0.00276038 5.28114142 0.0086928 6.81469727 0.02954102 C9.149972 0.05856427 11.48298054 0.05011779 13.81835938 0.03710938 C15.31641717 0.04334632 16.81446788 0.05173692 18.3125 0.0625 C19.0032814 0.05956436 19.69406281 0.05662872 20.40577698 0.05360413 C25.01345917 0.14247189 28.17036896 1.08840095 32.08984375 3.49609375 C36.50817945 8.39208736 37.25454933 11.45142973 37.29296875 17.8828125 C37.29866882 18.61804642 37.3043689 19.35328033 37.3102417 20.11079407 C37.31969623 21.67012085 37.32622748 23.22946766 37.33007812 24.78881836 C37.33973572 27.1571021 37.37073315 29.52449993 37.40234375 31.89257812 C37.40887892 33.41015112 37.41412737 34.9277303 37.41796875 36.4453125 C37.43031555 37.14661789 37.44266235 37.84792328 37.4553833 38.57048035 C37.43007044 44.25300545 36.30414589 48.79518539 32.64892578 53.25366211 C26.17632369 57.67399873 18.82105452 57.21670725 11.28955078 57.09301758 C8.96264435 57.05856118 6.63951522 57.07242552 4.3125 57.09179688 C2.81899441 57.08490057 1.32549851 57.07523012 -0.16796875 57.0625 C-1.19943527 57.0699398 -1.19943527 57.0699398 -2.2517395 57.07752991 C-7.23425331 56.95695987 -10.05072423 55.57818559 -13.91015625 52.49609375 C-18.39588813 47.52541788 -19.07817307 43.74039367 -19.1484375 37.23046875 C-19.15650925 36.51884583 -19.16458099 35.8072229 -19.17289734 35.07403564 C-19.18671673 33.56777364 -19.19744847 32.0614806 -19.20532227 30.55517578 C-19.2168252 29.02285516 -19.2372506 27.49057407 -19.2668457 25.95849609 C-19.3097539 23.73637865 -19.32572326 21.5154503 -19.3359375 19.29296875 C-19.35344559 18.61667419 -19.37095367 17.94037964 -19.38899231 17.24359131 C-19.36587525 12.1037258 -18.20174232 8.38731103 -14.91015625 4.49609375 C-10.39294474 0.67174031 -5.83528572 -0.09517647 0 0 Z " fill="#EAECED" transform="translate(78.91015625,255.50390625)"/>
<path d="M0 0 C1.12765526 -0.00574036 1.12765526 -0.00574036 2.27809143 -0.01159668 C3.86061958 -0.01430622 5.44319324 -0.00701222 7.02563477 0.00976562 C9.43153079 0.03116217 11.83443118 0.00995034 14.24023438 -0.015625 C15.78516277 -0.01298096 17.33008931 -0.00785441 18.875 0 C19.94094643 -0.01214539 19.94094643 -0.01214539 21.02842712 -0.02453613 C26.23809751 0.07194424 30.05826137 1.17559454 34.00390625 4.53125 C37.8254482 9.07091579 38.50837488 13.31253748 38.5 19.22265625 C38.50145523 19.93099106 38.50291046 20.63932587 38.50440979 21.36912537 C38.50276087 22.85574488 38.49131327 24.34238327 38.47045898 25.82885742 C38.4414322 28.09172675 38.4498836 30.35225752 38.46289062 32.61523438 C38.40195676 46.80578317 38.40195676 46.80578317 33.50390625 52.17578125 C28.50185454 56.07060798 24.90609159 56.70295941 18.73828125 56.76953125 C17.67084686 56.78163887 17.67084686 56.78163887 16.58184814 56.79399109 C15.07558614 56.80781048 13.5692931 56.81854222 12.06298828 56.82641602 C10.53066766 56.83791895 8.99838657 56.85834435 7.46630859 56.88793945 C5.24419115 56.93084765 3.0232628 56.94681701 0.80078125 56.95703125 C0.12448669 56.97453934 -0.55180786 56.99204742 -1.24859619 57.01008606 C-6.38948818 56.98696438 -10.1035533 55.82209882 -13.99609375 52.53125 C-17.87834903 47.96416292 -18.5945681 43.30232555 -18.52734375 37.40234375 C-18.53117065 36.64961685 -18.53499756 35.89688995 -18.53894043 35.12135315 C-18.54164577 33.54060517 -18.53438164 31.95981137 -18.51757812 30.37915039 C-18.49611511 27.97114696 -18.51743884 25.56611597 -18.54296875 23.15820312 C-18.54032581 21.61457681 -18.53520153 20.07095233 -18.52734375 18.52734375 C-18.53544067 17.81468857 -18.5435376 17.10203339 -18.55187988 16.36778259 C-18.45718703 11.27830662 -17.28195174 8.39021478 -13.99609375 4.53125 C-9.48586659 0.69085063 -5.76563135 -0.06550696 0 0 Z " fill="#00DAAA" transform="translate(309.99609375,255.46875)"/>
<path d="M0 0 C1.09579628 -0.00574036 1.09579628 -0.00574036 2.21372986 -0.01159668 C3.74739981 -0.01430126 5.28111704 -0.0070425 6.81469727 0.00976562 C9.15030378 0.03123125 11.48284616 0.00990242 13.81835938 -0.015625 C15.31641297 -0.01298207 16.81446468 -0.00785779 18.3125 0 C19.3486721 -0.01214539 19.3486721 -0.01214539 20.40577698 -0.02453613 C25.40763771 0.07135964 28.22064115 1.42991835 32.08984375 4.53125 C38.02260628 11.2657372 37.37472032 17.22508104 37.43994141 25.76904297 C37.45643248 27.3499226 37.48363167 28.93072981 37.52197266 30.51123047 C37.90086822 46.22386459 37.90086822 46.22386459 33.85400391 52.09912109 C28.79774402 56.20374613 23.5162993 56.99185182 17.1796875 56.96484375 C16.08389122 56.97270653 16.08389122 56.97270653 14.96595764 56.98072815 C13.43231469 56.98711043 11.89862254 56.98586089 10.36499023 56.97729492 C8.02954687 56.96875805 5.69653226 56.99763725 3.36132812 57.02929688 C1.86328198 57.03090866 0.36523154 57.03033179 -1.1328125 57.02734375 C-2.1689846 57.04419472 -2.1689846 57.04419472 -3.22608948 57.06138611 C-8.26277502 56.98954199 -11.12594848 55.82609462 -14.91015625 52.53125 C-18.60863677 47.92181414 -19.5107023 43.52400539 -19.44140625 37.65625 C-19.44523315 36.92809082 -19.44906006 36.19993164 -19.45300293 35.44970703 C-19.45570779 33.92023321 -19.44844704 32.390712 -19.43164062 30.86132812 C-19.41020649 28.53669902 -19.43148692 26.21515941 -19.45703125 23.890625 C-19.45438772 22.3958266 -19.4492622 20.9010301 -19.44140625 19.40625 C-19.44950317 18.72062988 -19.4576001 18.03500977 -19.46594238 17.32861328 C-19.36747251 12.19307926 -18.20197533 8.42652245 -14.91015625 4.53125 C-10.39855978 0.71513428 -5.82681 -0.06849909 0 0 Z " fill="#FBC22E" transform="translate(310.91015625,188.46875)"/>
<path d="M0 0 C0.75414185 -0.0038269 1.50828369 -0.00765381 2.28527832 -0.01159668 C3.8720026 -0.01430594 5.45877229 -0.00701395 7.04541016 0.00976562 C9.46228413 0.03119268 11.87618628 0.00993381 14.29296875 -0.015625 C15.84115234 -0.01298154 17.38933409 -0.00785619 18.9375 0 C19.65329224 -0.00809692 20.36908447 -0.01619385 21.10656738 -0.02453613 C27.48664777 0.09360651 30.81414219 2.4824408 35.31054688 6.75805664 C37.51830818 10.4503359 37.54426496 13.72180989 37.5 17.90234375 C37.5038269 18.70229263 37.50765381 19.50224152 37.51159668 20.32643127 C37.5143108 22.01328799 37.50698456 23.70018715 37.49023438 25.38696289 C37.46884356 27.95750653 37.49003608 30.52524673 37.515625 33.09570312 C37.51298108 34.73958946 37.50785477 36.38347406 37.5 38.02734375 C37.50809692 38.7900206 37.51619385 39.55269745 37.52453613 40.33848572 C37.43461364 45.50317523 36.31960079 48.40319232 32.96875 52.53125 C28.52443798 56.43685753 24.416787 56.70786123 18.703125 56.76953125 C17.63569061 56.78163887 17.63569061 56.78163887 16.54669189 56.79399109 C15.04042989 56.80781048 13.53413685 56.81854222 12.02783203 56.82641602 C10.49551141 56.83791895 8.96323032 56.85834435 7.43115234 56.88793945 C5.2090349 56.93084765 2.98810655 56.94681701 0.765625 56.95703125 C0.08933044 56.97453934 -0.58696411 56.99204742 -1.28375244 57.01008606 C-6.42464443 56.98696438 -10.13870955 55.82209882 -14.03125 52.53125 C-17.91350528 47.96416292 -18.62972435 43.30232555 -18.5625 37.40234375 C-18.5663269 36.64961685 -18.57015381 35.89688995 -18.57409668 35.12135315 C-18.57680202 33.54060517 -18.56953789 31.95981137 -18.55273438 30.37915039 C-18.53127136 27.97114696 -18.55259509 25.56611597 -18.578125 23.15820312 C-18.57548206 21.61457681 -18.57035778 20.07095233 -18.5625 18.52734375 C-18.57059692 17.81468857 -18.57869385 17.10203339 -18.58703613 16.36778259 C-18.49234328 11.27830662 -17.31710799 8.39021478 -14.03125 4.53125 C-9.51230137 0.68034779 -5.77729431 -0.0653518 0 0 Z " fill="#EBEDEE" transform="translate(233.03125,255.46875)"/>
<path d="M0 0 C0.75697174 -0.0066568 1.51394348 -0.0133136 2.29385376 -0.02017212 C3.89249245 -0.03027849 5.49117315 -0.03498976 7.08984375 -0.03466797 C9.52415202 -0.03903575 11.95663793 -0.07535794 14.390625 -0.11328125 C15.9479105 -0.11915115 17.50520457 -0.12311938 19.0625 -0.125 C20.14559952 -0.14655655 20.14559952 -0.14655655 21.25057983 -0.16854858 C26.38838448 -0.12255502 29.27433002 1.00969358 33.1640625 4.3359375 C37.02366074 8.86084509 37.75093888 12.5828162 37.66015625 18.3671875 C37.66161148 19.12132935 37.66306671 19.87547119 37.66456604 20.65246582 C37.66291377 22.23921593 37.65142805 23.82598319 37.63061523 25.41259766 C37.60164388 27.82914926 37.61002242 30.24350522 37.62304688 32.66015625 C37.6168087 34.2083439 37.60841714 35.75652468 37.59765625 37.3046875 C37.60059189 38.02047974 37.60352753 38.73627197 37.60655212 39.47375488 C37.5055162 44.89752688 36.31031896 48.890053 32.70556641 52.99804688 C26.33605038 57.4517391 19.24561533 57.02467378 11.79101562 56.87792969 C9.53687627 56.83589673 7.28571744 56.83688559 5.03125 56.84375 C-7.22940728 56.754928 -7.22940728 56.754928 -12.8359375 53.3359375 C-19.07065242 46.42719935 -18.15845069 39.59736549 -18.2409668 30.76147461 C-18.26250522 29.0281985 -18.29655918 27.29502993 -18.34350586 25.56225586 C-18.41078162 23.05533591 -18.43801065 20.55066619 -18.45703125 18.04296875 C-18.48486191 17.27604202 -18.51269257 16.5091153 -18.54136658 15.71894836 C-18.52123885 10.39569392 -17.11206942 7.65778846 -13.51722717 3.75639343 C-9.29515321 0.18932816 -5.35926595 0.01642693 0 0 Z " fill="#EBEDEE" transform="translate(155.8359375,255.6640625)"/>
<path d="M0 0 C2.25900444 -0.01187547 4.51525451 -0.06107848 6.77368164 -0.11157227 C19.79860583 -0.26110987 19.79860583 -0.26110987 25.50683594 3.85888672 C29.71274097 8.3834957 30.41232827 12.33334903 30.36157227 18.35913086 C30.36444244 19.11468765 30.36731262 19.87024445 30.37026978 20.6486969 C30.37230464 22.24139152 30.36681521 23.83411147 30.35424805 25.42675781 C30.3382074 27.85205574 30.35410355 30.27568178 30.37329102 32.70092773 C30.37130804 34.25366576 30.36746325 35.80640275 30.36157227 37.35913086 C30.3706813 38.4375248 30.3706813 38.4375248 30.37997437 39.53770447 C30.31507364 44.23298546 29.42885595 47.43469984 26.96313477 51.42553711 C21.98092331 56.03408271 18.01224587 56.59541977 11.44360352 56.66381836 C10.70741287 56.67189011 9.97122223 56.67996185 9.21272278 56.6882782 C7.65518534 56.70209746 6.0976179 56.71282926 4.54003906 56.72070312 C2.95238328 56.73222081 1.36476616 56.75266958 -0.22265625 56.78222656 C-2.52166953 56.82502671 -4.81953362 56.84108839 -7.11889648 56.85131836 C-7.8222261 56.86882645 -8.52555573 56.88633453 -9.25019836 56.90437317 C-15.20199418 56.8784066 -18.47005084 54.63830814 -22.84936523 50.86303711 C-26.87178832 45.99378811 -25.38514776 36.8228916 -25.44189453 30.77563477 C-25.46345478 29.04919406 -25.49753487 27.32286209 -25.54443359 25.59692383 C-25.61169307 23.09659464 -25.63893242 20.59852026 -25.65795898 18.09741211 C-25.68578964 17.33362244 -25.7136203 16.56983276 -25.74229431 15.78289795 C-25.72218166 10.48702927 -24.36011736 7.60929614 -20.6539917 3.81062317 C-14.89541958 -1.12165525 -7.15321758 0.01779215 0 0 Z " fill="#EBEDEE" transform="translate(163.036865234375,188.574462890625)"/>
<path d="M0 0 C0.80090561 -0.00004028 1.60181122 -0.00008057 2.42698669 -0.00012207 C4.11213065 0.00521635 5.7972754 0.02272724 7.48217773 0.05175781 C10.0546507 0.09368573 12.62450776 0.09281587 15.19726562 0.0859375 C16.83986185 0.09642904 18.48244466 0.10936696 20.125 0.125 C20.88970108 0.12520142 21.65440216 0.12540283 22.442276 0.12561035 C26.96726033 0.22546963 29.89081682 0.81694268 33.49609375 3.59375 C37.86636388 8.5710021 38.66065835 11.53217831 38.69921875 18.015625 C38.70491882 18.75323059 38.7106189 19.49083618 38.7164917 20.25079346 C38.72594508 21.81431646 38.73247702 23.37785941 38.73632812 24.94140625 C38.74599994 27.32067268 38.77700454 29.69906264 38.80859375 32.078125 C38.81512745 33.59895322 38.82037648 35.1197876 38.82421875 36.640625 C38.83656555 37.34709167 38.84891235 38.05355835 38.8616333 38.78143311 C38.84077809 43.46377874 37.95366048 46.61615991 35.49609375 50.59375 C28.75213604 56.83191089 21.33203101 55.87973205 12.70068359 55.94384766 C11.07130623 55.96037804 9.44200052 55.98762997 7.81298828 56.02587891 C5.45176973 56.08096922 3.09224551 56.10256921 0.73046875 56.1171875 C0.01042664 56.13985687 -0.70961548 56.16252625 -1.45147705 56.18588257 C-7.00248952 56.16297126 -10.56292638 54.52636626 -14.50390625 50.59375 C-17.55167762 46.07150154 -17.88845352 42.38941073 -17.90234375 37 C-17.90521393 36.29025024 -17.90808411 35.58050049 -17.91104126 34.84924316 C-17.91307221 33.35668128 -17.90761047 31.86409219 -17.89501953 30.37158203 C-17.87895028 28.09997478 -17.8948995 25.83014633 -17.9140625 23.55859375 C-17.91207989 22.10155861 -17.90823586 20.64452457 -17.90234375 19.1875 C-17.89895996 17.87458984 -17.89557617 16.56167969 -17.89208984 15.20898438 C-17.30331649 9.72561589 -15.59416671 6.7586721 -11.84790039 2.75585938 C-7.64170904 0.03628351 -4.88988419 -0.10511784 0 0 Z " fill="#EBEDEE" transform="translate(77.50390625,389.40625)"/>
<path d="M0 0 C0.75414185 -0.00145523 1.50828369 -0.00291046 2.28527832 -0.00440979 C3.87202843 -0.00275752 5.45879569 0.0087282 7.04541016 0.02954102 C9.46196176 0.05851237 11.87631772 0.05013383 14.29296875 0.03710938 C15.8411564 0.04334755 17.38933718 0.05173911 18.9375 0.0625 C19.65329224 0.05956436 20.36908447 0.05662872 21.10656738 0.05360413 C25.78349859 0.14072764 28.99329136 1.03934552 32.96875 3.49609375 C37.3970095 8.40308401 38.13353816 11.4721104 38.171875 17.91796875 C38.17757507 18.65557434 38.18327515 19.39317993 38.18914795 20.15313721 C38.19860133 21.71666021 38.20513327 23.28020316 38.20898438 24.84375 C38.21865619 27.22301643 38.24966079 29.60140639 38.28125 31.98046875 C38.2877837 33.50129697 38.29303273 35.02213135 38.296875 36.54296875 C38.3092218 37.24943542 38.3215686 37.9559021 38.33428955 38.68377686 C38.30832544 44.51315552 36.7607373 48.42410844 32.96875 52.80859375 C27.67208875 57.27765168 18.87929047 55.79989942 12.26391602 55.84619141 C10.53070643 55.86274298 8.79756489 55.89002284 7.06469727 55.92822266 C4.55709679 55.98316675 2.05109115 56.00488981 -0.45703125 56.01953125 C-1.22598221 56.04220062 -1.99493317 56.06487 -2.78718567 56.08822632 C-6.96302578 56.07193726 -8.75485696 55.67420251 -12.37963867 53.33837891 C-18.90730128 46.3413208 -18.52930965 39.37843809 -18.47729492 30.32885742 C-18.46878511 28.06792095 -18.49758087 25.8095156 -18.52929688 23.54882812 C-18.53090937 22.09505283 -18.53033044 20.64127312 -18.52734375 19.1875 C-18.52919678 17.87982666 -18.5310498 16.57215332 -18.53295898 15.22485352 C-17.74485678 9.3675859 -15.70953372 5.96578482 -11.28320312 2.08959961 C-7.42558953 0.19931103 -4.20435268 -0.06598508 0 0 Z " fill="#EBEDEE" transform="translate(78.03125,322.50390625)"/>
<path d="M0 0 C0.70359146 -0.00619858 1.40718292 -0.01239716 2.13209534 -0.01878357 C3.6102664 -0.02584136 5.08851763 -0.02277876 6.56665039 -0.01000977 C8.80831539 0.0038562 11.04579587 -0.0302627 13.28710938 -0.06835938 C26.1797503 -0.13930563 26.1797503 -0.13930563 31.91821289 4.10180664 C32.4002417 4.58512451 32.88227051 5.06844238 33.37890625 5.56640625 C33.93070557 6.11103516 34.48250488 6.65566406 35.05102539 7.21679688 C36.99688195 10.65987897 36.80759481 14.02431043 36.77734375 17.875 C36.78021393 18.6787355 36.78308411 19.48247101 36.78604126 20.31056213 C36.78807938 22.00758571 36.7825671 23.70463291 36.77001953 25.40161133 C36.75398253 27.99158626 36.7698651 30.57999581 36.7890625 33.16992188 C36.78707961 34.82161801 36.78323499 36.47331318 36.77734375 38.125 C36.78645279 39.28146278 36.78645279 39.28146278 36.79574585 40.46128845 C36.73650484 45.01865084 36.18056507 47.93749917 33.37890625 51.56640625 C28.32436718 56.11549141 24.46443651 56.73590968 17.859375 56.8046875 C17.12318436 56.81275925 16.38699371 56.82083099 15.62849426 56.82914734 C14.07095683 56.8429666 12.51338938 56.8536984 10.95581055 56.86157227 C9.36815477 56.87308995 7.78053765 56.89353872 6.19311523 56.9230957 C3.89410196 56.96589585 1.59623786 56.98195753 -0.703125 56.9921875 C-1.40645462 57.00969559 -2.10978424 57.02720367 -2.83442688 57.04524231 C-7.90015964 57.02314147 -10.70450745 55.71099596 -14.62109375 52.56640625 C-18.64240517 47.99043118 -18.80004786 43.70126893 -18.859375 37.828125 C-18.86744675 37.06973831 -18.87551849 36.31135162 -18.88383484 35.52998352 C-18.89765557 33.92536695 -18.90838671 32.32072123 -18.91625977 30.71606445 C-18.92777856 29.07990877 -18.94822904 27.44379063 -18.9777832 25.80786133 C-19.02056878 23.43935706 -19.03664319 21.0719683 -19.046875 18.703125 C-19.06438309 17.9779216 -19.08189117 17.2527182 -19.09992981 16.50553894 C-19.07807804 11.34735514 -18.02084798 8.43231413 -14.62109375 4.56640625 C-9.99906463 0.88761875 -5.92862482 0.04979558 0 0 Z " fill="#EBEDED" transform="translate(233.62109375,188.43359375)"/>
<path d="M0 0 C1.19992332 -0.00786278 1.19992332 -0.00786278 2.42408752 -0.0158844 C4.11091963 -0.02228922 5.79779648 -0.02098756 7.48461914 -0.01245117 C10.05501448 -0.00394395 12.62318347 -0.03271648 15.19335938 -0.06445312 C16.83723892 -0.06606551 18.48112238 -0.0654869 20.125 -0.0625 C21.26901527 -0.07935097 21.26901527 -0.07935097 22.43614197 -0.09654236 C28.55690246 -0.01725426 31.9771987 1.94374231 36.47680664 6.16870117 C38.20770874 9.5714515 38.07679345 12.93873574 38.0625 16.671875 C38.06774185 17.47086716 38.0729837 18.26985931 38.0783844 19.09306335 C38.08479856 20.78167562 38.08347541 22.47033261 38.07495117 24.15893555 C38.06646858 26.72722215 38.09516343 29.29326271 38.12695312 31.86132812 C38.12856614 33.50650975 38.12798569 35.15169529 38.125 36.796875 C38.14185097 37.93785393 38.14185097 37.93785393 38.15904236 39.10188293 C38.08759275 44.64154783 36.89981566 47.92082382 33.62890625 52.43359375 C29.60655508 55.8633527 25.55789127 55.88726881 20.4765625 55.8671875 C19.30993324 55.87505028 19.30993324 55.87505028 18.11973572 55.8830719 C16.4799824 55.88947562 14.84018305 55.88817649 13.20043945 55.87963867 C10.70244882 55.87113136 8.20674923 55.89990501 5.70898438 55.93164062 C4.11067776 55.93325302 2.51236713 55.93267437 0.9140625 55.9296875 C-0.19714211 55.94653847 -0.19714211 55.94653847 -1.33079529 55.96372986 C-6.4883949 55.89501891 -9.38416441 54.65621475 -13.37109375 51.43359375 C-17.39240517 46.85761868 -17.55004786 42.56845643 -17.609375 36.6953125 C-17.61744675 35.93692581 -17.62551849 35.17853912 -17.63383484 34.39717102 C-17.64765557 32.79255445 -17.65838671 31.18790873 -17.66625977 29.58325195 C-17.67777856 27.94709627 -17.69822904 26.31097813 -17.7277832 24.67504883 C-17.77056878 22.30654456 -17.78664319 19.9391558 -17.796875 17.5703125 C-17.81438309 16.8451091 -17.83189117 16.1199057 -17.84992981 15.37272644 C-17.82815995 10.23387875 -16.6950668 7.32913538 -13.37109375 3.43359375 C-9.24335763 0.00821992 -5.15963914 -0.01980752 0 0 Z " fill="#ECEEEE" transform="translate(232.37109375,389.56640625)"/>
<path d="M0 0 C1.19636581 -0.0149778 1.19636581 -0.0149778 2.41690063 -0.03025818 C4.0994958 -0.04540271 5.7821805 -0.05248511 7.46484375 -0.05200195 C10.02496444 -0.05855765 12.58119097 -0.11305103 15.140625 -0.16992188 C16.78123684 -0.17872664 18.42186696 -0.18467905 20.0625 -0.1875 C20.82001556 -0.20905655 21.57753113 -0.2306131 22.35800171 -0.25282288 C27.61952074 -0.18575591 30.50072241 1.21252175 34.27636719 4.89024353 C37.98092103 9.19803384 37.98254009 13.72401421 38 19.18359375 C38.0066568 19.91458282 38.0133136 20.6455719 38.02017212 21.39871216 C38.0302632 22.94009905 38.03499024 24.48152933 38.03466797 26.02294922 C38.03903656 28.36500022 38.07537664 30.70515746 38.11328125 33.046875 C38.1191514 34.55077487 38.12311947 36.0546836 38.125 37.55859375 C38.13937103 38.25048798 38.15374207 38.9423822 38.16854858 39.65524292 C38.11772477 45.13997221 36.84714006 48.17478827 33.6640625 52.50390625 C29.1192523 55.67918659 24.80802284 55.95896597 19.4140625 55.9375 C18.63772461 55.94274185 17.86138672 55.9479837 17.06152344 55.9533844 C15.42774649 55.95977917 13.79392334 55.9585007 12.16015625 55.94995117 C9.67103664 55.94143012 7.18420651 55.97025216 4.6953125 56.00195312 C3.10156318 56.00356522 1.50780983 56.00298745 -0.0859375 56 C-1.19243652 56.01685097 -1.19243652 56.01685097 -2.32128906 56.03404236 C-7.4746021 55.96507237 -10.4647231 54.90006208 -14.3359375 51.50390625 C-17.44285535 46.90653805 -17.79105105 42.66139367 -17.76953125 37.25390625 C-17.7747731 36.47756836 -17.78001495 35.70123047 -17.78541565 34.90136719 C-17.79181042 33.26759024 -17.79053195 31.63376709 -17.78198242 30 C-17.77346137 27.51088039 -17.80228341 25.02405026 -17.83398438 22.53515625 C-17.83559647 20.94140693 -17.8350187 19.34765358 -17.83203125 17.75390625 C-17.84326523 17.01624023 -17.85449921 16.27857422 -17.86607361 15.51855469 C-17.79709486 10.36458736 -16.67402037 7.41316029 -13.3359375 3.50390625 C-9.2243729 0.10342166 -5.13964129 0.02253066 0 0 Z " fill="#ECEEEE" transform="translate(155.3359375,322.49609375)"/>
<path d="M0 0 C0.80136383 -0.00287018 1.60272766 -0.00574036 2.42837524 -0.00869751 C4.12120267 -0.01073585 5.81405378 -0.00522206 7.50683594 0.00732422 C10.08582866 0.02333979 12.6632443 0.00749034 15.2421875 -0.01171875 C16.89062844 -0.00973545 18.53906839 -0.00588999 20.1875 0 C20.9533139 -0.00607269 21.71912781 -0.01214539 22.50814819 -0.0184021 C27.28186112 0.04365769 30.66797338 0.63410275 34.7265625 3.3984375 C38.85315485 8.09527026 39.3425191 11.85899874 39.328125 17.83203125 C39.33669525 18.62819351 39.3452655 19.42435577 39.35409546 20.24464417 C39.36553346 21.92127698 39.36661835 23.59800899 39.35791016 25.2746582 C39.35158683 27.82611935 39.39855024 30.37293944 39.44921875 32.92382812 C39.45376556 34.55989003 39.45517134 36.1959643 39.453125 37.83203125 C39.47154449 38.58640976 39.48996399 39.34078827 39.50894165 40.11802673 C39.41831838 45.36205178 38.00167383 48.24425842 34.33970642 52.0093689 C28.5550505 56.99050159 20.76715202 55.73498447 13.57983398 55.71411133 C11.29948086 55.71095193 9.02042734 55.73443288 6.74023438 55.75976562 C5.27864746 55.76203907 3.81705708 55.7627419 2.35546875 55.76171875 C1.03619385 55.76469971 -0.28308105 55.76768066 -1.64233398 55.77075195 C-7.46613273 55.17360995 -11.51641264 52.85120771 -15.2734375 48.3984375 C-16.50056325 44.71706025 -16.47408773 41.27815418 -16.51171875 37.44140625 C-16.5197905 36.66082352 -16.52786224 35.88024078 -16.53617859 35.07600403 C-16.5500007 33.42430836 -16.56073123 31.77258435 -16.56860352 30.12084961 C-16.58012336 28.43619386 -16.60057545 26.75157461 -16.63012695 25.06713867 C-16.67289881 22.62914297 -16.68898521 20.19223104 -16.69921875 17.75390625 C-16.71672684 17.00682907 -16.73423492 16.25975189 -16.75227356 15.49003601 C-16.72669153 9.27624498 -14.68825149 5.97655252 -10.54052734 1.54833984 C-7.12459135 -0.18427469 -3.74417651 -0.02953415 0 0 Z " fill="#ECEEEE" transform="translate(154.2734375,389.6015625)"/>
<path d="M0 0 C0.73381897 -0.00807175 1.46763794 -0.01614349 2.22369385 -0.02445984 C3.77703504 -0.03828074 5.33040634 -0.04901181 6.88378906 -0.05688477 C8.46460939 -0.0683893 10.04539134 -0.08881719 11.62597656 -0.1184082 C13.91758452 -0.16129798 16.20803938 -0.1772834 18.5 -0.1875 C19.5472525 -0.21376213 19.5472525 -0.21376213 20.61566162 -0.24055481 C26.12613516 -0.21651094 29.13737467 1.09749379 33.515625 4.23828125 C37.00286034 8.30308298 36.96895394 12.46857828 36.94921875 17.609375 C36.9544606 18.40932388 36.95970245 19.20927277 36.96510315 20.03346252 C36.97150797 21.72029463 36.97020631 23.40717148 36.96166992 25.09399414 C36.9531627 27.66438948 36.98193523 30.23255847 37.01367188 32.80273438 C37.01528426 34.44661392 37.01470565 36.09049738 37.01171875 37.734375 C37.02856972 38.87839027 37.02856972 38.87839027 37.04576111 40.04551697 C36.97910899 45.19082464 36.03770287 48.2473756 32.515625 52.23828125 C27.93929162 55.32115156 23.68418669 55.71771966 18.30078125 55.7421875 C17.52681503 55.7521727 16.75284882 55.7621579 15.95542908 55.77244568 C14.32589022 55.78756641 12.69625933 55.79467335 11.06665039 55.79418945 C8.58778624 55.80075566 6.11292298 55.85530136 3.63476562 55.91210938 C-9.60351612 56.05590003 -9.60351612 56.05590003 -13.98828125 52.515625 C-18.32524826 47.89520595 -18.80091876 42.61504773 -18.8203125 36.5234375 C-18.8269693 35.79007675 -18.8336261 35.056716 -18.84048462 34.3011322 C-18.85057458 32.75554906 -18.85530277 31.20992268 -18.85498047 29.66430664 C-18.85935549 27.31127631 -18.89571443 24.96012108 -18.93359375 22.60742188 C-18.93946257 21.10026678 -18.94343153 19.59310285 -18.9453125 18.0859375 C-18.95968353 17.38888199 -18.97405457 16.69182648 -18.98886108 15.97364807 C-18.94220632 10.93825497 -17.60409745 8.13448891 -14.484375 4.23828125 C-9.97863254 0.27868939 -5.78801632 0.06053772 0 0 Z " fill="#ECEEEE" transform="translate(233.484375,322.76171875)"/>
<path d="M0 0 C5.61179854 3.1990483 8.9525802 8.07507146 11.03515625 14.09765625 C12.81072551 21.29918872 11.96802898 27.71642235 8.41015625 34.23046875 C5.87427523 37.78934723 2.68508135 40.76184818 -0.96484375 43.16015625 C-1.95484375 43.16015625 -2.94484375 43.16015625 -3.96484375 43.16015625 C-3.94389648 43.89129639 -3.92294922 44.62243652 -3.90136719 45.37573242 C-3.81804061 48.69956626 -3.76613043 52.02318009 -3.71484375 55.34765625 C-3.66457031 57.07338867 -3.66457031 57.07338867 -3.61328125 58.83398438 C-3.60039062 59.94580078 -3.5875 61.05761719 -3.57421875 62.203125 C-3.55327148 63.2243042 -3.53232422 64.2454834 -3.51074219 65.29760742 C-4.08358626 68.90868095 -5.4466671 70.56237197 -7.96484375 73.16015625 C-9.96484375 73.7890625 -9.96484375 73.7890625 -11.96484375 73.72265625 C-12.62484375 73.72394531 -13.28484375 73.72523438 -13.96484375 73.7265625 C-16.87229461 72.90316333 -18.06568821 71.48444476 -19.96484375 69.16015625 C-20.38378906 66.49047852 -20.38378906 66.49047852 -20.29296875 63.4765625 C-20.28910156 62.38408203 -20.28523438 61.29160156 -20.28125 60.16601562 C-20.23704763 57.87399255 -20.17719692 55.58221685 -20.1015625 53.29101562 C-19.87557296 47.32553533 -19.87557296 47.32553533 -22.67407227 42.40185547 C-24.72303687 41.16941327 -26.80062444 40.17103572 -28.96484375 39.16015625 C-32.60841197 35.50967424 -35.71351366 31.43808807 -35.96484375 26.16015625 C-36.03703125 25.44214844 -36.10921875 24.72414063 -36.18359375 23.984375 C-36.61718008 17.01447473 -34.91581807 11.9034272 -30.96484375 6.16015625 C-22.83680804 -2.80104941 -11.19727273 -4.36917176 0 0 Z " fill="#38444D" transform="translate(482.96484375,396.83984375)"/>
<path d="M0 0 C5.24039193 2.97561687 8.64868523 6.35542719 10.75 12.0625 C11.76906813 18.56370833 11.97384194 24.87518172 8.5625 30.6875 C5.05594716 35.31022318 1.24050871 38.18479356 -4.25 40.0625 C-11.13765924 40.96502087 -16.87085629 40.74642282 -22.56640625 36.5546875 C-27.2384335 32.4138188 -30.71225053 28.19009052 -31.5390625 21.84375 C-31.93185575 15.14559134 -30.44545271 10.32187134 -26.25 5.0625 C-18.47256857 -2.13994623 -9.98941142 -4.39775904 0 0 Z " fill="#4AC6EE" transform="translate(459.25,129.9375)"/>
<path d="M0 0 C4.52049994 2.45774754 7.55699234 5.73898468 9.875 10.375 C10.38464647 15.95604654 10.66181405 20.80137191 8.125 25.875 C7.3825 26.7 6.64 27.525 5.875 28.375 C5.235625 29.1175 4.59625 29.86 3.9375 30.625 C-0.25016307 34.17816867 -4.40919316 34.89815926 -9.78515625 34.74609375 C-14.81171077 33.94889395 -18.35517988 31.31235164 -21.734375 27.61328125 C-24.91105121 23.21412009 -25.90871668 19.24071788 -25.609375 13.8359375 C-24.48267086 8.11155358 -21.52107001 4.46393461 -17 0.9375 C-11.23389334 -2.19625362 -6.04078688 -2.7520409 0 0 Z " fill="#4AC5EE" transform="translate(478.125,401.625)"/>
<path d="M0 0 C4.73951297 2.41133116 6.88922971 4.79268914 8.5625 9.8125 C9.09881763 16.24831151 8.37470813 19.55783474 4.5625 24.8125 C1.8125 26.75 1.8125 26.75 -0.4375 27.8125 C0.10519531 28.19921875 0.64789063 28.5859375 1.20703125 28.984375 C1.92246094 29.50515625 2.63789063 30.0259375 3.375 30.5625 C4.43654297 31.32820313 4.43654297 31.32820313 5.51953125 32.109375 C9.81509211 35.69037793 11.3704214 38.92372713 11.9375 44.5 C11.85769858 50.69031043 8.41887011 54.95612989 4.1875 59.1875 C-3.0450709 63.6648058 -11.13187188 63.6325735 -19.4375 62.8125 C-22.51017845 61.78380125 -24.68732449 60.57261233 -27.4375 58.8125 C-26.4475 55.8425 -26.4475 55.8425 -25.4375 52.8125 C-24.59316406 53.13605469 -23.74882812 53.45960938 -22.87890625 53.79296875 C-19.21629812 54.878032 -16.18727406 55.11255514 -12.375 55.125 C-11.18777344 55.14175781 -10.00054687 55.15851563 -8.77734375 55.17578125 C-5.14778081 54.78098668 -3.32190633 54.0079394 -0.4375 51.8125 C2.05705917 48.07066125 1.93856522 46.25006964 1.5625 41.8125 C0.58239051 38.62714417 -0.17653257 36.57322448 -3.1015625 34.80859375 C-8.05063529 32.76784063 -13.12960926 32.16881674 -18.4375 31.8125 C-18.4375 29.8325 -18.4375 27.8525 -18.4375 25.8125 C-17.22513672 25.66554688 -17.22513672 25.66554688 -15.98828125 25.515625 C-7.87521034 24.53048731 -7.87521034 24.53048731 -1.4375 19.8125 C0.00680855 16.92388291 -0.06061494 15.01602299 -0.4375 11.8125 C-2.1835079 8.73161456 -2.1835079 8.73161456 -5.4375 6.8125 C-10.80408296 5.95912533 -15.52884954 6.43254826 -20.4375 8.8125 C-21.4275 8.8125 -22.4175 8.8125 -23.4375 8.8125 C-23.7675 6.8325 -24.0975 4.8525 -24.4375 2.8125 C-16.47534912 -1.59125753 -8.79201602 -2.84351448 0 0 Z " fill="#657682" transform="translate(182.4375,87.1875)"/>
<path d="M0 0 C4.44460371 2.70162186 7.8480979 6.2586958 10.1875 10.9375 C11.30842884 21.52200843 8.67037759 29.10530251 2.125 37.375 C-2.88253508 43.21712426 -8.30545805 48.56987683 -13.8125 53.9375 C-0.9425 54.4325 -0.9425 54.4325 12.1875 54.9375 C12.1875 57.2475 12.1875 59.5575 12.1875 61.9375 C-1.0125 61.9375 -14.2125 61.9375 -27.8125 61.9375 C-27.8125 56.9375 -27.8125 56.9375 -25.99584961 54.61669922 C-25.16061768 53.83311035 -24.32538574 53.04952148 -23.46484375 52.2421875 C-22.54896484 51.36046875 -21.63308594 50.47875 -20.68945312 49.5703125 C-19.71091442 48.64968032 -18.73108925 47.73041366 -17.75 46.8125 C-5.24991093 35.71715547 -5.24991093 35.71715547 1.390625 20.94921875 C1.48781515 16.13020735 1.44796348 12.7801891 -1.8125 8.9375 C-6.0790847 6.38476539 -9.95816739 6.27484507 -14.8125 6.9375 C-17.95143898 8.02806792 -20.87791923 9.38349033 -23.8125 10.9375 C-24.4725 8.9575 -25.1325 6.9775 -25.8125 4.9375 C-24.54418307 4.12107746 -23.27274069 3.30950895 -22 2.5 C-21.29230469 2.04753906 -20.58460937 1.59507813 -19.85546875 1.12890625 C-13.83808865 -2.38027335 -6.50572181 -1.81307001 0 0 Z " fill="#667581" transform="translate(133.8125,87.0625)"/>
<path d="M0 0 C0 20.79 0 41.58 0 63 C-2.64 63 -5.28 63 -8 63 C-8.33 45.18 -8.66 27.36 -9 9 C-13.95 11.475 -13.95 11.475 -19 14 C-19.33 11.69 -19.66 9.38 -20 7 C-18.18078137 5.81144383 -16.34378237 4.65008207 -14.5 3.5 C-13.4790625 2.8503125 -12.458125 2.200625 -11.40625 1.53125 C-8 0 -8 0 0 0 Z " fill="#657682" transform="translate(83,87)"/>
<path d="M0 0 C3.96 0 7.92 0 12 0 C12.04934926 5.65998046 12.08569529 11.31983636 12.10986328 16.97998047 C12.11993582 18.90643494 12.13359443 20.83287408 12.15087891 22.75927734 C12.17507241 25.52445252 12.18647036 28.289426 12.1953125 31.0546875 C12.20563507 31.9193161 12.21595764 32.7839447 12.22659302 33.67477417 C12.22699106 35.78453521 12.12265243 37.89380718 12 40 C10 42 10 42 7.125 42.375 C4 42 4 42 1.82910156 40.52050781 C-0.7813854 36.92324841 -0.4993924 33.56724216 -0.390625 29.296875 C-0.38496521 28.45908508 -0.37930542 27.62129517 -0.37347412 26.75811768 C-0.35112329 24.08815834 -0.30093098 21.41955213 -0.25 18.75 C-0.22993325 16.93751941 -0.21168278 15.12501774 -0.1953125 13.3125 C-0.15126294 8.87448041 -0.08224566 4.43746944 0 0 Z " fill="#3E474A" transform="translate(422,403)"/>
<path d="M0 0 C4.17781634 3.87671246 7.22712043 8.03587533 10.3125 12.8125 C10.76689453 13.50537109 11.22128906 14.19824219 11.68945312 14.91210938 C12.79831476 16.6045824 13.89991438 18.30180958 15 20 C14.67 20.66 14.34 21.32 14 22 C13.40832031 21.59007813 12.81664062 21.18015625 12.20703125 20.7578125 C11.41683594 20.21898438 10.62664062 19.68015625 9.8125 19.125 C8.64654297 18.32449219 8.64654297 18.32449219 7.45703125 17.5078125 C4.68113043 15.70899896 4.68113043 15.70899896 0 14 C0 9.38 0 4.76 0 0 Z " fill="#F9C02F" transform="translate(460,101)"/>
</svg>
