<svg xmlns="http://www.w3.org/2000/svg" xmlns:xlink="http://www.w3.org/1999/xlink" width="500" zoomAndPan="magnify" viewBox="0 0 375 374.999991" height="500" preserveAspectRatio="xMidYMid meet" version="1.0"><defs><g/><clipPath id="84a966524b"><path d="M 118.558594 140 L 204 140 L 204 185 L 118.558594 185 Z M 118.558594 140 " clip-rule="nonzero"/></clipPath><clipPath id="d1a1283386"><path d="M 242 133 L 268.558594 133 L 268.558594 160 L 242 160 Z M 242 133 " clip-rule="nonzero"/></clipPath><clipPath id="c678ad0b4b"><path d="M 148 73.78125 L 175 73.78125 L 175 100 L 148 100 Z M 148 73.78125 " clip-rule="nonzero"/></clipPath></defs><rect x="-37.5" width="450" fill="#ffffff" y="-37.499999" height="449.999989" fill-opacity="1"/><rect x="-37.5" width="450" fill="#ffffff" y="-37.499999" height="449.999989" fill-opacity="1"/><path fill="#df5c64" d="M 215.691406 82.648438 C 213.660156 82.648438 211.628906 82.746094 209.605469 82.941406 C 207.582031 83.136719 205.570312 83.429688 203.574219 83.820312 C 201.582031 84.210938 199.609375 84.699219 197.660156 85.28125 C 195.710938 85.863281 193.792969 86.535156 191.910156 87.300781 C 190.027344 88.070312 188.183594 88.925781 186.382812 89.871094 C 184.582031 90.816406 182.832031 91.84375 181.132812 92.957031 C 179.429688 94.074219 177.785156 95.265625 176.199219 96.539062 C 174.613281 97.8125 173.09375 99.160156 171.640625 100.582031 C 170.183594 102 168.800781 103.488281 167.488281 105.042969 C 166.175781 106.597656 164.941406 108.210938 163.785156 109.882812 C 162.632812 111.554688 161.558594 113.28125 160.570312 115.058594 C 159.582031 116.835938 158.679688 118.65625 157.867188 120.519531 C 157.054688 122.382812 156.335938 124.285156 155.707031 126.21875 C 155.078125 128.152344 154.542969 130.109375 154.101562 132.097656 C 153.664062 134.082031 153.320312 136.085938 153.074219 138.101562 C 152.828125 140.121094 152.679688 142.148438 152.628906 144.179688 L 176.335938 144.179688 C 176.382812 142.921875 176.492188 141.671875 176.660156 140.421875 C 176.828125 139.175781 177.054688 137.9375 177.339844 136.714844 C 177.625 135.488281 177.96875 134.277344 178.371094 133.085938 C 178.773438 131.894531 179.234375 130.722656 179.746094 129.574219 C 180.261719 128.425781 180.828125 127.304688 181.453125 126.210938 C 182.074219 125.117188 182.746094 124.054688 183.472656 123.023438 C 184.195312 121.996094 184.964844 121.003906 185.785156 120.046875 C 186.605469 119.089844 187.46875 118.175781 188.375 117.304688 C 189.28125 116.433594 190.226562 115.605469 191.214844 114.824219 C 192.199219 114.042969 193.222656 113.308594 194.277344 112.625 C 195.335938 111.941406 196.421875 111.308594 197.539062 110.730469 C 198.65625 110.148438 199.796875 109.625 200.964844 109.152344 C 202.132812 108.683594 203.320312 108.269531 204.527344 107.914062 C 205.734375 107.558594 206.957031 107.261719 208.191406 107.023438 C 209.429688 106.785156 210.671875 106.605469 211.925781 106.484375 C 213.179688 106.363281 214.433594 106.304688 215.691406 106.304688 L 216.132812 106.304688 L 216.132812 82.648438 Z M 215.691406 82.648438 " fill-opacity="1" fill-rule="nonzero"/><g clip-path="url(#84a966524b)"><path fill="#f5b054" d="M 118.992188 152.492188 C 120.011719 154.253906 121.109375 155.960938 122.292969 157.617188 C 123.476562 159.269531 124.734375 160.867188 126.070312 162.398438 C 127.410156 163.933594 128.816406 165.398438 130.296875 166.792969 C 131.773438 168.191406 133.316406 169.511719 134.921875 170.761719 C 136.527344 172.007812 138.191406 173.175781 139.910156 174.265625 C 141.628906 175.351562 143.398438 176.351562 145.214844 177.269531 C 147.03125 178.183594 148.886719 179.011719 150.78125 179.75 C 152.679688 180.484375 154.605469 181.128906 156.5625 181.679688 C 158.523438 182.230469 160.503906 182.683594 162.503906 183.042969 C 164.507812 183.402344 166.523438 183.664062 168.550781 183.828125 C 170.578125 183.992188 172.609375 184.058594 174.640625 184.023438 C 176.675781 183.992188 178.703125 183.863281 180.722656 183.632812 C 182.746094 183.40625 184.75 183.078125 186.742188 182.65625 C 188.730469 182.234375 190.695312 181.71875 192.636719 181.105469 C 194.574219 180.492188 196.480469 179.789062 198.351562 178.992188 C 200.222656 178.195312 202.054688 177.308594 203.839844 176.335938 L 191.984375 155.800781 C 190.875 156.390625 189.738281 156.925781 188.574219 157.40625 C 187.410156 157.886719 186.226562 158.3125 185.023438 158.679688 C 183.816406 159.046875 182.597656 159.355469 181.363281 159.605469 C 180.132812 159.851562 178.886719 160.042969 177.636719 160.175781 C 176.382812 160.304688 175.128906 160.375 173.871094 160.386719 C 172.613281 160.394531 171.355469 160.347656 170.101562 160.234375 C 168.847656 160.125 167.601562 159.953125 166.363281 159.726562 C 165.125 159.496094 163.902344 159.207031 162.691406 158.859375 C 161.484375 158.511719 160.292969 158.109375 159.121094 157.644531 C 157.949219 157.183594 156.804688 156.667969 155.683594 156.097656 C 154.5625 155.523438 153.46875 154.902344 152.40625 154.226562 C 151.347656 153.550781 150.320312 152.824219 149.328125 152.046875 C 148.335938 151.273438 147.382812 150.453125 146.46875 149.585938 C 145.554688 148.722656 144.6875 147.8125 143.859375 146.863281 C 143.035156 145.914062 142.253906 144.925781 141.523438 143.902344 C 140.792969 142.878906 140.109375 141.820312 139.480469 140.730469 C 139.421875 140.59375 139.351562 140.464844 139.273438 140.335938 L 118.785156 152.167969 Z M 118.992188 152.492188 " fill-opacity="1" fill-rule="nonzero"/></g><path fill="#4ac4b6" d="M 234.144531 198.792969 C 235.160156 197.03125 236.089844 195.226562 236.929688 193.375 C 237.773438 191.523438 238.523438 189.632812 239.179688 187.710938 C 239.839844 185.785156 240.40625 183.835938 240.875 181.855469 C 241.347656 179.878906 241.71875 177.878906 241.996094 175.867188 C 242.273438 173.851562 242.453125 171.828125 242.535156 169.796875 C 242.617188 167.761719 242.601562 165.730469 242.484375 163.703125 C 242.371094 161.671875 242.15625 159.652344 241.847656 157.640625 C 241.535156 155.628906 241.128906 153.640625 240.628906 151.667969 C 240.125 149.699219 239.527344 147.757812 238.835938 145.84375 C 238.148438 143.929688 237.367188 142.054688 236.492188 140.21875 C 235.621094 138.382812 234.664062 136.589844 233.617188 134.84375 C 232.574219 133.101562 231.445312 131.410156 230.238281 129.773438 C 229.027344 128.140625 227.742188 126.566406 226.382812 125.054688 C 225.023438 123.542969 223.589844 122.101562 222.089844 120.726562 C 220.589844 119.355469 219.027344 118.058594 217.402344 116.835938 C 215.777344 115.613281 214.09375 114.472656 212.359375 113.414062 L 200.527344 133.972656 C 201.59375 134.640625 202.625 135.359375 203.621094 136.125 C 204.617188 136.894531 205.578125 137.707031 206.496094 138.566406 C 207.414062 139.425781 208.289062 140.328125 209.121094 141.273438 C 209.953125 142.214844 210.738281 143.195312 211.476562 144.214844 C 212.214844 145.234375 212.902344 146.285156 213.539062 147.371094 C 214.175781 148.457031 214.761719 149.570312 215.292969 150.710938 C 215.824219 151.851562 216.296875 153.015625 216.714844 154.199219 C 217.136719 155.386719 217.496094 156.589844 217.800781 157.8125 C 218.105469 159.03125 218.347656 160.265625 218.535156 161.507812 C 218.71875 162.753906 218.84375 164.003906 218.910156 165.261719 C 218.976562 166.515625 218.980469 167.773438 218.925781 169.03125 C 218.871094 170.289062 218.753906 171.539062 218.578125 172.785156 C 218.402344 174.03125 218.167969 175.265625 217.875 176.488281 C 217.582031 177.710938 217.230469 178.917969 216.820312 180.109375 C 216.414062 181.296875 215.945312 182.464844 215.425781 183.609375 C 214.90625 184.753906 214.328125 185.871094 213.703125 186.960938 C 213.625 187.097656 213.539062 187.230469 213.445312 187.355469 L 233.957031 199.1875 Z M 234.144531 198.792969 " fill-opacity="1" fill-rule="nonzero"/><g clip-path="url(#d1a1283386)"><path fill="#4ac4b6" d="M 268.429688 146.820312 C 268.429688 147.667969 268.347656 148.507812 268.179688 149.339844 C 268.015625 150.171875 267.769531 150.980469 267.445312 151.761719 C 267.121094 152.546875 266.722656 153.292969 266.253906 153.996094 C 265.78125 154.703125 265.246094 155.355469 264.644531 155.953125 C 264.046875 156.554688 263.394531 157.089844 262.6875 157.5625 C 261.984375 158.03125 261.238281 158.429688 260.453125 158.753906 C 259.671875 159.078125 258.863281 159.324219 258.03125 159.488281 C 257.199219 159.65625 256.359375 159.738281 255.511719 159.738281 C 254.664062 159.738281 253.824219 159.65625 252.992188 159.488281 C 252.160156 159.324219 251.351562 159.078125 250.566406 158.753906 C 249.785156 158.429688 249.039062 158.03125 248.335938 157.5625 C 247.628906 157.089844 246.976562 156.554688 246.375 155.953125 C 245.777344 155.355469 245.242188 154.703125 244.769531 153.996094 C 244.300781 153.292969 243.902344 152.546875 243.578125 151.761719 C 243.253906 150.980469 243.007812 150.171875 242.839844 149.339844 C 242.675781 148.507812 242.59375 147.667969 242.59375 146.820312 C 242.59375 145.972656 242.675781 145.132812 242.839844 144.300781 C 243.007812 143.46875 243.253906 142.660156 243.578125 141.875 C 243.902344 141.09375 244.300781 140.347656 244.769531 139.644531 C 245.242188 138.9375 245.777344 138.285156 246.375 137.683594 C 246.976562 137.085938 247.628906 136.550781 248.335938 136.078125 C 249.039062 135.609375 249.785156 135.210938 250.566406 134.886719 C 251.351562 134.5625 252.160156 134.316406 252.992188 134.148438 C 253.824219 133.984375 254.664062 133.902344 255.511719 133.902344 C 256.359375 133.902344 257.199219 133.984375 258.03125 134.148438 C 258.863281 134.316406 259.671875 134.5625 260.453125 134.886719 C 261.238281 135.210938 261.984375 135.609375 262.6875 136.078125 C 263.394531 136.550781 264.046875 137.085938 264.644531 137.683594 C 265.246094 138.285156 265.78125 138.9375 266.253906 139.644531 C 266.722656 140.347656 267.121094 141.09375 267.445312 141.875 C 267.769531 142.660156 268.015625 143.46875 268.179688 144.300781 C 268.347656 145.132812 268.429688 145.972656 268.429688 146.820312 Z M 268.429688 146.820312 " fill-opacity="1" fill-rule="nonzero"/></g><g clip-path="url(#c678ad0b4b)"><path fill="#df5c64" d="M 174.230469 86.699219 C 174.230469 87.546875 174.148438 88.386719 173.980469 89.21875 C 173.816406 90.050781 173.570312 90.859375 173.246094 91.640625 C 172.921875 92.425781 172.523438 93.167969 172.050781 93.875 C 171.582031 94.582031 171.046875 95.234375 170.445312 95.832031 C 169.847656 96.433594 169.195312 96.96875 168.488281 97.4375 C 167.785156 97.910156 167.039062 98.308594 166.253906 98.632812 C 165.472656 98.957031 164.664062 99.203125 163.832031 99.367188 C 163 99.535156 162.160156 99.617188 161.3125 99.617188 C 160.464844 99.617188 159.625 99.535156 158.792969 99.367188 C 157.960938 99.203125 157.152344 98.957031 156.367188 98.632812 C 155.585938 98.308594 154.839844 97.910156 154.136719 97.4375 C 153.429688 96.96875 152.777344 96.433594 152.175781 95.832031 C 151.578125 95.234375 151.042969 94.582031 150.570312 93.875 C 150.101562 93.167969 149.703125 92.425781 149.378906 91.640625 C 149.050781 90.859375 148.808594 90.050781 148.640625 89.21875 C 148.476562 88.386719 148.394531 87.546875 148.394531 86.699219 C 148.394531 85.851562 148.476562 85.007812 148.640625 84.179688 C 148.808594 83.347656 149.050781 82.539062 149.378906 81.753906 C 149.703125 80.972656 150.101562 80.226562 150.570312 79.519531 C 151.042969 78.816406 151.578125 78.164062 152.175781 77.5625 C 152.777344 76.964844 153.429688 76.429688 154.136719 75.957031 C 154.839844 75.484375 155.585938 75.089844 156.367188 74.761719 C 157.152344 74.4375 157.960938 74.195312 158.792969 74.027344 C 159.625 73.863281 160.464844 73.78125 161.3125 73.78125 C 162.160156 73.78125 163 73.863281 163.832031 74.027344 C 164.664062 74.195312 165.472656 74.4375 166.253906 74.761719 C 167.039062 75.089844 167.785156 75.484375 168.488281 75.957031 C 169.195312 76.429688 169.847656 76.964844 170.445312 77.5625 C 171.046875 78.164062 171.582031 78.816406 172.050781 79.519531 C 172.523438 80.226562 172.921875 80.972656 173.246094 81.753906 C 173.570312 82.539062 173.816406 83.347656 173.980469 84.179688 C 174.148438 85.007812 174.230469 85.851562 174.230469 86.699219 Z M 174.230469 86.699219 " fill-opacity="1" fill-rule="nonzero"/></g><path fill="#f5b054" d="M 161.3125 197.011719 C 161.3125 197.859375 161.230469 198.699219 161.0625 199.53125 C 160.898438 200.363281 160.652344 201.171875 160.328125 201.953125 C 160.003906 202.738281 159.605469 203.480469 159.132812 204.1875 C 158.664062 204.890625 158.128906 205.542969 157.527344 206.144531 C 156.929688 206.746094 156.277344 207.28125 155.570312 207.75 C 154.867188 208.222656 154.121094 208.621094 153.335938 208.945312 C 152.554688 209.269531 151.746094 209.515625 150.914062 209.679688 C 150.082031 209.84375 149.242188 209.929688 148.394531 209.929688 C 147.546875 209.929688 146.707031 209.84375 145.875 209.679688 C 145.042969 209.515625 144.234375 209.269531 143.449219 208.945312 C 142.667969 208.621094 141.921875 208.222656 141.21875 207.75 C 140.511719 207.28125 139.859375 206.746094 139.257812 206.144531 C 138.660156 205.542969 138.125 204.890625 137.652344 204.1875 C 137.183594 203.480469 136.785156 202.738281 136.460938 201.953125 C 136.132812 201.171875 135.890625 200.363281 135.722656 199.53125 C 135.558594 198.699219 135.476562 197.859375 135.476562 197.011719 C 135.476562 196.160156 135.558594 195.320312 135.722656 194.488281 C 135.890625 193.65625 136.132812 192.851562 136.460938 192.066406 C 136.785156 191.28125 137.183594 190.539062 137.652344 189.832031 C 138.125 189.128906 138.660156 188.476562 139.257812 187.875 C 139.859375 187.277344 140.511719 186.742188 141.21875 186.269531 C 141.921875 185.796875 142.667969 185.398438 143.449219 185.074219 C 144.234375 184.75 145.042969 184.507812 145.875 184.339844 C 146.707031 184.175781 147.546875 184.09375 148.394531 184.09375 C 149.242188 184.09375 150.082031 184.175781 150.914062 184.339844 C 151.746094 184.507812 152.554688 184.75 153.335938 185.074219 C 154.121094 185.398438 154.867188 185.796875 155.570312 186.269531 C 156.277344 186.742188 156.929688 187.277344 157.527344 187.875 C 158.128906 188.476562 158.664062 189.128906 159.132812 189.832031 C 159.605469 190.539062 160.003906 191.28125 160.328125 192.066406 C 160.652344 192.851562 160.898438 193.65625 161.0625 194.488281 C 161.230469 195.320312 161.3125 196.160156 161.3125 197.011719 Z M 161.3125 197.011719 " fill-opacity="1" fill-rule="nonzero"/><g fill="#000000" fill-opacity="1"><g transform="translate(145.339448, 244.21393)"><g><path d="M 8.703125 -9.78125 C 6.160156 -10.125 4.273438 -10.796875 3.046875 -11.796875 C 1.816406 -12.804688 1.203125 -14.375 1.203125 -16.5 L 1.203125 -16.828125 C 1.203125 -18.953125 1.910156 -20.644531 3.328125 -21.90625 C 4.742188 -23.164062 6.785156 -23.796875 9.453125 -23.796875 C 12.328125 -23.796875 14.425781 -23.140625 15.75 -21.828125 C 17.070312 -20.515625 17.734375 -18.488281 17.734375 -15.75 L 17.734375 -15.125 L 12.875 -15.125 C 12.875 -16.664062 12.617188 -17.796875 12.109375 -18.515625 C 11.597656 -19.234375 10.722656 -19.59375 9.484375 -19.59375 L 9.203125 -19.59375 C 8.222656 -19.59375 7.460938 -19.351562 6.921875 -18.875 C 6.390625 -18.394531 6.125 -17.773438 6.125 -17.015625 L 6.125 -16.859375 C 6.125 -16.296875 6.226562 -15.8125 6.4375 -15.40625 C 6.644531 -15.007812 7.039062 -14.679688 7.625 -14.421875 C 8.21875 -14.171875 9.085938 -13.960938 10.234375 -13.796875 C 12.785156 -13.460938 14.703125 -12.796875 15.984375 -11.796875 C 17.265625 -10.796875 17.90625 -9.203125 17.90625 -7.015625 L 17.90625 -6.71875 C 17.90625 -4.476562 17.179688 -2.734375 15.734375 -1.484375 C 14.285156 -0.234375 12.191406 0.390625 9.453125 0.390625 C 6.691406 0.390625 4.59375 -0.253906 3.15625 -1.546875 C 1.726562 -2.835938 1.015625 -4.890625 1.015625 -7.703125 L 1.015625 -7.984375 L 5.875 -7.984375 C 5.875 -6.523438 6.171875 -5.460938 6.765625 -4.796875 C 7.359375 -4.140625 8.210938 -3.8125 9.328125 -3.8125 L 9.59375 -3.8125 C 10.71875 -3.8125 11.554688 -4.078125 12.109375 -4.609375 C 12.671875 -5.140625 12.953125 -5.789062 12.953125 -6.5625 L 12.953125 -6.71875 C 12.953125 -7.28125 12.832031 -7.757812 12.59375 -8.15625 C 12.351562 -8.5625 11.925781 -8.894531 11.3125 -9.15625 C 10.707031 -9.425781 9.835938 -9.632812 8.703125 -9.78125 Z M 8.703125 -9.78125 "/></g></g></g><g fill="#000000" fill-opacity="1"><g transform="translate(166.069428, 244.21393)"><g><path d="M 10.765625 -19.203125 L 10.765625 0 L 5.90625 0 L 5.90625 -19.203125 L 0.515625 -19.203125 L 0.515625 -23.40625 L 16.203125 -23.40625 L 16.203125 -19.203125 Z M 10.765625 -19.203125 "/></g></g></g><g fill="#000000" fill-opacity="1"><g transform="translate(184.579414, 244.21393)"><g><path d="M 1.6875 -23.40625 L 15.984375 -23.40625 L 15.984375 -19.203125 L 6.546875 -19.203125 L 6.546875 -14.046875 L 14.484375 -14.046875 L 14.484375 -9.84375 L 6.546875 -9.84375 L 6.546875 -4.203125 L 15.984375 -4.203125 L 15.984375 0 L 1.6875 0 Z M 1.6875 -23.40625 "/></g></g></g><g fill="#000000" fill-opacity="1"><g transform="translate(203.569398, 244.21393)"><g><path d="M 19.6875 -14.96875 L 15.515625 0 L 10.5625 0 L 6.390625 -14.96875 L 6.546875 -10.296875 L 6.546875 0 L 1.6875 0 L 1.6875 -23.40625 L 8.84375 -23.40625 L 13.046875 -8.4375 L 17.21875 -23.40625 L 24.421875 -23.40625 L 24.421875 0 L 19.5625 0 L 19.5625 -10.296875 Z M 19.6875 -14.96875 "/></g></g></g><g fill="#df5c64" fill-opacity="1"><g transform="translate(168.945513, 267.884982)"><g><path d="M 2.203125 -4.03125 C 2.203125 -3.46875 2.238281 -2.988281 2.3125 -2.59375 C 2.394531 -2.195312 2.535156 -1.894531 2.734375 -1.6875 C 2.941406 -1.488281 3.234375 -1.390625 3.609375 -1.390625 L 3.71875 -1.390625 C 4.144531 -1.390625 4.445312 -1.523438 4.625 -1.796875 C 4.800781 -2.066406 4.890625 -2.429688 4.890625 -2.890625 L 6.65625 -2.890625 L 6.65625 -2.796875 C 6.65625 -1.753906 6.398438 -1.003906 5.890625 -0.546875 C 5.378906 -0.0859375 4.617188 0.140625 3.609375 0.140625 C 2.503906 0.140625 1.695312 -0.1875 1.1875 -0.84375 C 0.675781 -1.5 0.421875 -2.5625 0.421875 -4.03125 L 0.421875 -4.46875 C 0.421875 -5.9375 0.675781 -7 1.1875 -7.65625 C 1.695312 -8.3125 2.503906 -8.640625 3.609375 -8.640625 C 4.617188 -8.640625 5.378906 -8.40625 5.890625 -7.9375 C 6.398438 -7.476562 6.65625 -6.71875 6.65625 -5.65625 L 6.65625 -5.265625 L 4.890625 -5.265625 C 4.890625 -5.847656 4.804688 -6.300781 4.640625 -6.625 C 4.484375 -6.945312 4.175781 -7.109375 3.71875 -7.109375 L 3.609375 -7.109375 C 3.234375 -7.109375 2.941406 -7.003906 2.734375 -6.796875 C 2.535156 -6.597656 2.394531 -6.300781 2.3125 -5.90625 C 2.238281 -5.507812 2.203125 -5.03125 2.203125 -4.46875 Z M 2.203125 -4.03125 "/></g></g></g><g fill="#df5c64" fill-opacity="1"><g transform="translate(179.442665, 267.884982)"><g><path d="M 5.515625 0 L 0.609375 0 L 0.609375 -8.5 L 2.375 -8.5 L 2.375 -1.53125 L 5.515625 -1.53125 Z M 5.515625 0 "/></g></g></g><g fill="#df5c64" fill-opacity="1"><g transform="translate(188.535433, 267.884982)"><g><path d="M 3.609375 0.140625 C 2.835938 0.140625 2.226562 0.0351562 1.78125 -0.171875 C 1.34375 -0.390625 1.03125 -0.707031 0.84375 -1.125 C 0.65625 -1.550781 0.5625 -2.070312 0.5625 -2.6875 L 0.5625 -8.5 L 2.3125 -8.5 L 2.3125 -2.75 C 2.3125 -2.289062 2.398438 -1.945312 2.578125 -1.71875 C 2.765625 -1.5 3.109375 -1.390625 3.609375 -1.390625 C 4.109375 -1.390625 4.445312 -1.5 4.625 -1.71875 C 4.8125 -1.945312 4.90625 -2.289062 4.90625 -2.75 L 4.90625 -8.5 L 6.671875 -8.5 L 6.671875 -2.6875 C 6.671875 -2.070312 6.570312 -1.550781 6.375 -1.125 C 6.1875 -0.707031 5.867188 -0.390625 5.421875 -0.171875 C 4.984375 0.0351562 4.378906 0.140625 3.609375 0.140625 Z M 3.609375 0.140625 "/></g></g></g><g fill="#df5c64" fill-opacity="1"><g transform="translate(199.174115, 267.884982)"><g><path d="M 0.609375 -8.5 L 3.390625 -8.5 C 3.734375 -8.5 4.066406 -8.46875 4.390625 -8.40625 C 4.710938 -8.34375 5.003906 -8.226562 5.265625 -8.0625 C 5.523438 -7.894531 5.734375 -7.65625 5.890625 -7.34375 C 6.046875 -7.039062 6.125 -6.640625 6.125 -6.140625 L 6.125 -5.921875 C 6.125 -5.535156 6.046875 -5.21875 5.890625 -4.96875 C 5.742188 -4.726562 5.546875 -4.535156 5.296875 -4.390625 C 5.609375 -4.242188 5.859375 -4.03125 6.046875 -3.75 C 6.242188 -3.476562 6.34375 -3.113281 6.34375 -2.65625 L 6.34375 -2.4375 C 6.34375 -1.925781 6.257812 -1.507812 6.09375 -1.1875 C 5.925781 -0.863281 5.703125 -0.613281 5.421875 -0.4375 C 5.148438 -0.269531 4.84375 -0.15625 4.5 -0.09375 C 4.164062 -0.03125 3.828125 0 3.484375 0 L 0.609375 0 Z M 3.546875 -3.578125 L 2.375 -3.578125 L 2.375 -1.53125 L 3.546875 -1.53125 C 3.710938 -1.53125 3.875 -1.554688 4.03125 -1.609375 C 4.1875 -1.660156 4.3125 -1.757812 4.40625 -1.90625 C 4.507812 -2.050781 4.5625 -2.25 4.5625 -2.5 L 4.5625 -2.609375 C 4.5625 -2.867188 4.507812 -3.066406 4.40625 -3.203125 C 4.3125 -3.335938 4.1875 -3.429688 4.03125 -3.484375 C 3.875 -3.546875 3.710938 -3.578125 3.546875 -3.578125 Z M 3.390625 -6.96875 L 2.375 -6.96875 L 2.375 -5.109375 L 3.390625 -5.109375 C 3.535156 -5.109375 3.679688 -5.128906 3.828125 -5.171875 C 3.972656 -5.222656 4.09375 -5.3125 4.1875 -5.4375 C 4.289062 -5.5625 4.34375 -5.738281 4.34375 -5.96875 L 4.34375 -6.109375 C 4.34375 -6.335938 4.289062 -6.515625 4.1875 -6.640625 C 4.09375 -6.765625 3.972656 -6.847656 3.828125 -6.890625 C 3.679688 -6.941406 3.535156 -6.96875 3.390625 -6.96875 Z M 3.390625 -6.96875 "/></g></g></g></svg>